<?xml version="1.0" encoding="UTF-8"?>
<!DOCTYPE svg PUBLIC "-//W3C//DTD SVG 1.1//EN" "http://www.w3.org/Graphics/SVG/1.1/DTD/svg11.dtd">
<svg width="150mm" height="90mm" viewBox="0 0 15000 9000" version="1.1" xmlns="http://www.w3.org/2000/svg" xmlns:xlink="http://www.w3.org/1999/xlink" stroke-width="28.222" stroke-linejoin="round" xml:space="preserve">
 <path fill="rgb(255,255,255)" stroke="none" d="M 7500,9000 L 0,9000 0,0 15000,0 15000,9000 7500,9000 Z"/>
 <path fill="none" stroke="rgb(179,179,179)" stroke-linejoin="round" d="M 14493,6491 L 1784,6491"/>
 <path fill="none" stroke="rgb(179,179,179)" stroke-linejoin="round" d="M 14493,5941 L 1784,5941"/>
 <path fill="none" stroke="rgb(179,179,179)" stroke-linejoin="round" d="M 14493,5392 L 1784,5392"/>
 <path fill="none" stroke="rgb(179,179,179)" stroke-linejoin="round" d="M 14493,4842 L 1784,4842"/>
 <path fill="none" stroke="rgb(179,179,179)" stroke-linejoin="round" d="M 14493,4294 L 1784,4294"/>
 <path fill="none" stroke="rgb(179,179,179)" stroke-linejoin="round" d="M 14493,3744 L 1784,3744"/>
 <path fill="none" stroke="rgb(179,179,179)" stroke-linejoin="round" d="M 14493,3194 L 1784,3194"/>
 <path fill="none" stroke="rgb(179,179,179)" stroke-linejoin="round" d="M 14493,2645 L 1784,2645"/>
 <path fill="none" stroke="rgb(179,179,179)" stroke-linejoin="round" d="M 14493,2096 L 1784,2096"/>
 <path fill="none" stroke="rgb(179,179,179)" stroke-linejoin="round" d="M 14493,1546 L 1784,1546"/>
 <path fill="none" stroke="rgb(179,179,179)" stroke-linejoin="round" d="M 14493,997 L 1784,997"/>
 <path fill="none" stroke="rgb(179,179,179)" stroke-linejoin="round" d="M 1784,6641 L 1784,6491"/>
 <path fill="none" stroke="rgb(179,179,179)" stroke-linejoin="round" d="M 1784,6641 L 1784,6491"/>
 <path fill="none" stroke="rgb(179,179,179)" stroke-linejoin="round" d="M 3372,6641 L 3372,6491"/>
 <path fill="none" stroke="rgb(179,179,179)" stroke-linejoin="round" d="M 3372,6641 L 3372,6491"/>
 <path fill="none" stroke="rgb(179,179,179)" stroke-linejoin="round" d="M 4961,6641 L 4961,6491"/>
 <path fill="none" stroke="rgb(179,179,179)" stroke-linejoin="round" d="M 4961,6641 L 4961,6491"/>
 <path fill="none" stroke="rgb(179,179,179)" stroke-linejoin="round" d="M 6550,6641 L 6550,6491"/>
 <path fill="none" stroke="rgb(179,179,179)" stroke-linejoin="round" d="M 6550,6641 L 6550,6491"/>
 <path fill="none" stroke="rgb(179,179,179)" stroke-linejoin="round" d="M 8138,6641 L 8138,6491"/>
 <path fill="none" stroke="rgb(179,179,179)" stroke-linejoin="round" d="M 8138,6641 L 8138,6491"/>
 <path fill="none" stroke="rgb(179,179,179)" stroke-linejoin="round" d="M 9727,6641 L 9727,6491"/>
 <path fill="none" stroke="rgb(179,179,179)" stroke-linejoin="round" d="M 9727,6641 L 9727,6491"/>
 <path fill="none" stroke="rgb(179,179,179)" stroke-linejoin="round" d="M 11316,6641 L 11316,6491"/>
 <path fill="none" stroke="rgb(179,179,179)" stroke-linejoin="round" d="M 11316,6641 L 11316,6491"/>
 <path fill="none" stroke="rgb(179,179,179)" stroke-linejoin="round" d="M 12905,6641 L 12905,6491"/>
 <path fill="none" stroke="rgb(179,179,179)" stroke-linejoin="round" d="M 12905,6641 L 12905,6491"/>
 <path fill="none" stroke="rgb(179,179,179)" stroke-linejoin="round" d="M 14493,6641 L 14493,6491"/>
 <path fill="none" stroke="rgb(179,179,179)" stroke-linejoin="round" d="M 14493,6641 L 14493,6491"/>
 <path fill="none" stroke="rgb(179,179,179)" stroke-linejoin="round" d="M 1784,6491 L 14493,6491"/>
 <path fill="none" stroke="rgb(179,179,179)" stroke-linejoin="round" d="M 1634,6491 L 1784,6491"/>
 <path fill="none" stroke="rgb(179,179,179)" stroke-linejoin="round" d="M 1634,6491 L 1784,6491"/>
 <path fill="none" stroke="rgb(179,179,179)" stroke-linejoin="round" d="M 1634,5941 L 1784,5941"/>
 <path fill="none" stroke="rgb(179,179,179)" stroke-linejoin="round" d="M 1634,5941 L 1784,5941"/>
 <path fill="none" stroke="rgb(179,179,179)" stroke-linejoin="round" d="M 1634,5392 L 1784,5392"/>
 <path fill="none" stroke="rgb(179,179,179)" stroke-linejoin="round" d="M 1634,5392 L 1784,5392"/>
 <path fill="none" stroke="rgb(179,179,179)" stroke-linejoin="round" d="M 1634,4842 L 1784,4842"/>
 <path fill="none" stroke="rgb(179,179,179)" stroke-linejoin="round" d="M 1634,4842 L 1784,4842"/>
 <path fill="none" stroke="rgb(179,179,179)" stroke-linejoin="round" d="M 1634,4294 L 1784,4294"/>
 <path fill="none" stroke="rgb(179,179,179)" stroke-linejoin="round" d="M 1634,4294 L 1784,4294"/>
 <path fill="none" stroke="rgb(179,179,179)" stroke-linejoin="round" d="M 1634,3744 L 1784,3744"/>
 <path fill="none" stroke="rgb(179,179,179)" stroke-linejoin="round" d="M 1634,3744 L 1784,3744"/>
 <path fill="none" stroke="rgb(179,179,179)" stroke-linejoin="round" d="M 1634,3194 L 1784,3194"/>
 <path fill="none" stroke="rgb(179,179,179)" stroke-linejoin="round" d="M 1634,3194 L 1784,3194"/>
 <path fill="none" stroke="rgb(179,179,179)" stroke-linejoin="round" d="M 1634,2645 L 1784,2645"/>
 <path fill="none" stroke="rgb(179,179,179)" stroke-linejoin="round" d="M 1634,2645 L 1784,2645"/>
 <path fill="none" stroke="rgb(179,179,179)" stroke-linejoin="round" d="M 1634,2096 L 1784,2096"/>
 <path fill="none" stroke="rgb(179,179,179)" stroke-linejoin="round" d="M 1634,2096 L 1784,2096"/>
 <path fill="none" stroke="rgb(179,179,179)" stroke-linejoin="round" d="M 1634,1546 L 1784,1546"/>
 <path fill="none" stroke="rgb(179,179,179)" stroke-linejoin="round" d="M 1634,1546 L 1784,1546"/>
 <path fill="none" stroke="rgb(179,179,179)" stroke-linejoin="round" d="M 1634,997 L 1784,997"/>
 <path fill="none" stroke="rgb(179,179,179)" stroke-linejoin="round" d="M 1634,997 L 1784,997"/>
 <path fill="none" stroke="rgb(179,179,179)" stroke-linejoin="round" d="M 1784,6491 L 1784,997"/>
 <path fill="rgb(31,120,180)" stroke="none" d="M 13302,6491 L 14096,6491 14096,1368 13302,1368 13302,6491 Z"/>
 <path fill="rgb(31,120,180)" stroke="none" d="M 11713,6491 L 12507,6491 12507,1443 11713,1443 11713,6491 Z"/>
 <path fill="rgb(31,120,180)" stroke="none" d="M 10124,6491 L 10919,6491 10919,1498 10124,1498 10124,6491 Z"/>
 <path fill="rgb(31,120,180)" stroke="none" d="M 8535,6491 L 9330,6491 9330,1211 8535,1211 8535,6491 Z"/>
 <path fill="rgb(31,120,180)" stroke="none" d="M 6947,6491 L 7741,6491 7741,1226 6947,1226 6947,6491 Z"/>
 <path fill="rgb(31,120,180)" stroke="none" d="M 5358,6491 L 6153,6491 6153,1289 5358,1289 5358,6491 Z"/>
 <path fill="rgb(31,120,180)" stroke="none" d="M 3770,6491 L 4564,6491 4564,1399 3770,1399 3770,6491 Z"/>
 <path fill="rgb(31,120,180)" stroke="none" d="M 2181,6491 L 2975,6491 2975,2811 2181,2811 2181,6491 Z"/>
 <path fill="rgb(166,206,227)" stroke="none" d="M 13302,1368 L 14096,1368 14096,997 13302,997 13302,1368 Z"/>
 <path fill="rgb(166,206,227)" stroke="none" d="M 11713,1443 L 12507,1443 12507,997 11713,997 11713,1443 Z"/>
 <path fill="rgb(166,206,227)" stroke="none" d="M 10124,1498 L 10919,1498 10919,997 10124,997 10124,1498 Z"/>
 <path fill="rgb(166,206,227)" stroke="none" d="M 8535,1211 L 9330,1211 9330,997 8535,997 8535,1211 Z"/>
 <path fill="rgb(166,206,227)" stroke="none" d="M 6947,1226 L 7741,1226 7741,997 6947,997 6947,1226 Z"/>
 <path fill="rgb(166,206,227)" stroke="none" d="M 5358,1289 L 6153,1289 6153,997 5358,997 5358,1289 Z"/>
 <path fill="rgb(166,206,227)" stroke="none" d="M 3770,1399 L 4564,1399 4564,997 3770,997 3770,1399 Z"/>
 <path fill="rgb(166,206,227)" stroke="none" d="M 2181,2811 L 2975,2811 2975,997 2181,997 2181,2811 Z"/>
 <text class="TextShape" transform="rotate(-44.9 1464 8164)"><tspan class="TextParagraph" font-family="Liberation Sans, sans-serif" font-size="353px" font-weight="400"><tspan class="TextPosition" x="1464" y="8164"><tspan fill="rgb(0,0,0)" stroke="none">CoAP (c/n)</tspan></tspan></tspan></text>
 <text class="TextShape" transform="rotate(-44.9 2548 8669)"><tspan class="TextParagraph" font-family="Liberation Sans, sans-serif" font-size="353px" font-weight="400"><tspan class="TextPosition" x="2548" y="8669"><tspan fill="rgb(0,0,0)" stroke="none">CoAP Sec (c/n)</tspan></tspan></tspan></text>
 <text class="TextShape" transform="rotate(-44.9 4791 8014)"><tspan class="TextParagraph" font-family="Liberation Sans, sans-serif" font-size="353px" font-weight="400"><tspan class="TextPosition" x="4791" y="8014"><tspan fill="rgb(0,0,0)" stroke="none">MQTT (0)</tspan></tspan></tspan></text>
 <text class="TextShape" transform="rotate(-44.9 6380 8014)"><tspan class="TextParagraph" font-family="Liberation Sans, sans-serif" font-size="353px" font-weight="400"><tspan class="TextPosition" x="6380" y="8014"><tspan fill="rgb(0,0,0)" stroke="none">MQTT (1)</tspan></tspan></tspan></text>
 <text class="TextShape" transform="rotate(-44.9 7968 8014)"><tspan class="TextParagraph" font-family="Liberation Sans, sans-serif" font-size="353px" font-weight="400"><tspan class="TextPosition" x="7968" y="8014"><tspan fill="rgb(0,0,0)" stroke="none">MQTT (2)</tspan></tspan></tspan></text>
 <text class="TextShape" transform="rotate(-44.9 9145 8426)"><tspan class="TextParagraph" font-family="Liberation Sans, sans-serif" font-size="353px" font-weight="400"><tspan class="TextPosition" x="9145" y="8426"><tspan fill="rgb(0,0,0)" stroke="none">MQTT-SN (0)</tspan></tspan></tspan></text>
 <text class="TextShape" transform="rotate(-44.9 10733 8426)"><tspan class="TextParagraph" font-family="Liberation Sans, sans-serif" font-size="353px" font-weight="400"><tspan class="TextPosition" x="10733" y="8426"><tspan fill="rgb(0,0,0)" stroke="none">MQTT-SN (1)</tspan></tspan></tspan></text>
 <text class="TextShape" transform="rotate(-44.9 12322 8426)"><tspan class="TextParagraph" font-family="Liberation Sans, sans-serif" font-size="353px" font-weight="400"><tspan class="TextPosition" x="12322" y="8426"><tspan fill="rgb(0,0,0)" stroke="none">MQTT-SN (2)</tspan></tspan></tspan></text>
 <text class="TextShape"><tspan class="TextParagraph" font-family="Liberation Sans, sans-serif" font-size="353px" font-weight="400"><tspan class="TextPosition" x="1031" y="6612"><tspan fill="rgb(0,0,0)" stroke="none">0%</tspan></tspan></tspan></text>
 <text class="TextShape"><tspan class="TextParagraph" font-family="Liberation Sans, sans-serif" font-size="353px" font-weight="400"><tspan class="TextPosition" x="846" y="6062"><tspan fill="rgb(0,0,0)" stroke="none">10%</tspan></tspan></tspan></text>
 <text class="TextShape"><tspan class="TextParagraph" font-family="Liberation Sans, sans-serif" font-size="353px" font-weight="400"><tspan class="TextPosition" x="846" y="5513"><tspan fill="rgb(0,0,0)" stroke="none">20%</tspan></tspan></tspan></text>
 <text class="TextShape"><tspan class="TextParagraph" font-family="Liberation Sans, sans-serif" font-size="353px" font-weight="400"><tspan class="TextPosition" x="846" y="4963"><tspan fill="rgb(0,0,0)" stroke="none">30%</tspan></tspan></tspan></text>
 <text class="TextShape"><tspan class="TextParagraph" font-family="Liberation Sans, sans-serif" font-size="353px" font-weight="400"><tspan class="TextPosition" x="846" y="4414"><tspan fill="rgb(0,0,0)" stroke="none">40%</tspan></tspan></tspan></text>
 <text class="TextShape"><tspan class="TextParagraph" font-family="Liberation Sans, sans-serif" font-size="353px" font-weight="400"><tspan class="TextPosition" x="846" y="3864"><tspan fill="rgb(0,0,0)" stroke="none">50%</tspan></tspan></tspan></text>
 <text class="TextShape"><tspan class="TextParagraph" font-family="Liberation Sans, sans-serif" font-size="353px" font-weight="400"><tspan class="TextPosition" x="846" y="3314"><tspan fill="rgb(0,0,0)" stroke="none">60%</tspan></tspan></tspan></text>
 <text class="TextShape"><tspan class="TextParagraph" font-family="Liberation Sans, sans-serif" font-size="353px" font-weight="400"><tspan class="TextPosition" x="846" y="2765"><tspan fill="rgb(0,0,0)" stroke="none">70%</tspan></tspan></tspan></text>
 <text class="TextShape"><tspan class="TextParagraph" font-family="Liberation Sans, sans-serif" font-size="353px" font-weight="400"><tspan class="TextPosition" x="846" y="2216"><tspan fill="rgb(0,0,0)" stroke="none">80%</tspan></tspan></tspan></text>
 <text class="TextShape"><tspan class="TextParagraph" font-family="Liberation Sans, sans-serif" font-size="353px" font-weight="400"><tspan class="TextPosition" x="846" y="1666"><tspan fill="rgb(0,0,0)" stroke="none">90%</tspan></tspan></tspan></text>
 <text class="TextShape"><tspan class="TextParagraph" font-family="Liberation Sans, sans-serif" font-size="353px" font-weight="400"><tspan class="TextPosition" x="661" y="1117"><tspan fill="rgb(0,0,0)" stroke="none">100%</tspan></tspan></tspan></text>
 <text class="TextShape" transform="rotate(-90 2698 4994)"><tspan class="TextParagraph" font-family="Liberation Sans, sans-serif" font-size="353px" font-weight="400"><tspan class="TextPosition" x="2698" y="4994"><tspan fill="rgb(0,0,0)" stroke="none">67%</tspan></tspan></tspan></text>
 <text class="TextShape" transform="rotate(-90 4287 4288)"><tspan class="TextParagraph" font-family="Liberation Sans, sans-serif" font-size="353px" font-weight="400"><tspan class="TextPosition" x="4287" y="4288"><tspan fill="rgb(0,0,0)" stroke="none">93%</tspan></tspan></tspan></text>
 <text class="TextShape" transform="rotate(-90 5876 4233)"><tspan class="TextParagraph" font-family="Liberation Sans, sans-serif" font-size="353px" font-weight="400"><tspan class="TextPosition" x="5876" y="4233"><tspan fill="rgb(0,0,0)" stroke="none">95%</tspan></tspan></tspan></text>
 <text class="TextShape" transform="rotate(-90 7465 4202)"><tspan class="TextParagraph" font-family="Liberation Sans, sans-serif" font-size="353px" font-weight="400"><tspan class="TextPosition" x="7465" y="4202"><tspan fill="rgb(0,0,0)" stroke="none">96%</tspan></tspan></tspan></text>
 <text class="TextShape" transform="rotate(-90 9053 4194)"><tspan class="TextParagraph" font-family="Liberation Sans, sans-serif" font-size="353px" font-weight="400"><tspan class="TextPosition" x="9053" y="4194"><tspan fill="rgb(0,0,0)" stroke="none">96%</tspan></tspan></tspan></text>
 <text class="TextShape" transform="rotate(-90 10642 4338)"><tspan class="TextParagraph" font-family="Liberation Sans, sans-serif" font-size="353px" font-weight="400"><tspan class="TextPosition" x="10642" y="4338"><tspan fill="rgb(0,0,0)" stroke="none">91%</tspan></tspan></tspan></text>
 <text class="TextShape" transform="rotate(-90 12231 4310)"><tspan class="TextParagraph" font-family="Liberation Sans, sans-serif" font-size="353px" font-weight="400"><tspan class="TextPosition" x="12231" y="4310"><tspan fill="rgb(0,0,0)" stroke="none">92%</tspan></tspan></tspan></text>
 <text class="TextShape" transform="rotate(-90 13820 4273)"><tspan class="TextParagraph" font-family="Liberation Sans, sans-serif" font-size="353px" font-weight="400"><tspan class="TextPosition" x="13820" y="4273"><tspan fill="rgb(0,0,0)" stroke="none">93%</tspan></tspan></tspan></text>
 <text class="TextShape" transform="rotate(-90 2698 2247)"><tspan class="TextParagraph" font-family="Liberation Sans, sans-serif" font-size="353px" font-weight="400"><tspan class="TextPosition" x="2698" y="2247"><tspan fill="rgb(0,0,0)" stroke="none">33%</tspan></tspan></tspan></text>
 <text class="TextShape"><tspan class="TextParagraph" font-family="Liberation Sans, sans-serif" font-size="353px" font-weight="400"><tspan class="TextPosition" x="3915" y="1318"><tspan fill="rgb(0,0,0)" stroke="none">7%</tspan></tspan></tspan></text>
 <text class="TextShape"><tspan class="TextParagraph" font-family="Liberation Sans, sans-serif" font-size="353px" font-weight="400"><tspan class="TextPosition" x="5504" y="1263"><tspan fill="rgb(0,0,0)" stroke="none">5%</tspan></tspan></tspan></text>
 <text class="TextShape"><tspan class="TextParagraph" font-family="Liberation Sans, sans-serif" font-size="353px" font-weight="400"><tspan class="TextPosition" x="7093" y="1231"><tspan fill="rgb(0,0,0)" stroke="none">4%</tspan></tspan></tspan></text>
 <text class="TextShape"><tspan class="TextParagraph" font-family="Liberation Sans, sans-serif" font-size="353px" font-weight="400"><tspan class="TextPosition" x="8681" y="1224"><tspan fill="rgb(0,0,0)" stroke="none">4%</tspan></tspan></tspan></text>
 <text class="TextShape"><tspan class="TextParagraph" font-family="Liberation Sans, sans-serif" font-size="353px" font-weight="400"><tspan class="TextPosition" x="10270" y="1367"><tspan fill="rgb(0,0,0)" stroke="none">9%</tspan></tspan></tspan></text>
 <text class="TextShape"><tspan class="TextParagraph" font-family="Liberation Sans, sans-serif" font-size="353px" font-weight="400"><tspan class="TextPosition" x="11859" y="1340"><tspan fill="rgb(0,0,0)" stroke="none">8%</tspan></tspan></tspan></text>
 <text class="TextShape"><tspan class="TextParagraph" font-family="Liberation Sans, sans-serif" font-size="353px" font-weight="400"><tspan class="TextPosition" x="13448" y="1302"><tspan fill="rgb(0,0,0)" stroke="none">7%</tspan></tspan></tspan></text>
 <path fill="rgb(31,120,180)" stroke="none" d="M 7786,455 L 7680,455 7680,244 7891,244 7891,455 7786,455 Z"/>
 <path fill="rgb(166,206,227)" stroke="none" d="M 5603,455 L 5498,455 5498,244 5709,244 5709,455 5603,455 Z"/>
 <text class="TextShape"><tspan class="TextParagraph" font-family="Liberation Sans, sans-serif" font-size="353px" font-weight="400"><tspan class="TextPosition" x="5809" y="469"><tspan fill="rgb(0,0,0)" stroke="none">Payload</tspan></tspan></tspan></text>
 <text class="TextShape"><tspan class="TextParagraph" font-family="Liberation Sans, sans-serif" font-size="353px" font-weight="400"><tspan class="TextPosition" x="7991" y="469"><tspan fill="rgb(0,0,0)" stroke="none">Overhead</tspan></tspan></tspan></text>
 <text class="TextShape" transform="rotate(-90 527 6296)"><tspan class="TextParagraph" font-family="Liberation Sans, sans-serif" font-size="353px" font-weight="400"><tspan class="TextPosition" x="527" y="6296"><tspan fill="rgb(0,0,0)" stroke="none">Payload-to-Overhead Ratio (%)</tspan></tspan></tspan></text>
</svg>