<?xml version="1.0" encoding="UTF-8"?>
<!DOCTYPE svg PUBLIC "-//W3C//DTD SVG 1.1//EN" "http://www.w3.org/Graphics/SVG/1.1/DTD/svg11.dtd">
<svg width="150mm" height="70mm" viewBox="0 0 15000 7000" version="1.1" xmlns="http://www.w3.org/2000/svg" xmlns:xlink="http://www.w3.org/1999/xlink" stroke-width="28.222" stroke-linejoin="round" xml:space="preserve">
 <path fill="rgb(255,255,255)" stroke="none" d="M 7500,6976 L 0,6976 0,0 15000,0 15000,6976 7500,6976 Z"/>
 <path fill="none" stroke="rgb(179,179,179)" stroke-linejoin="round" d="M 14492,4774 L 1884,4774"/>
 <path fill="none" stroke="rgb(179,179,179)" stroke-linejoin="round" d="M 14492,4234 L 1884,4234"/>
 <path fill="none" stroke="rgb(179,179,179)" stroke-linejoin="round" d="M 14492,3694 L 1884,3694"/>
 <path fill="none" stroke="rgb(179,179,179)" stroke-linejoin="round" d="M 14492,3154 L 1884,3154"/>
 <path fill="none" stroke="rgb(179,179,179)" stroke-linejoin="round" d="M 14492,2613 L 1884,2613"/>
 <path fill="none" stroke="rgb(179,179,179)" stroke-linejoin="round" d="M 14492,2072 L 1884,2072"/>
 <path fill="none" stroke="rgb(179,179,179)" stroke-linejoin="round" d="M 14492,1532 L 1884,1532"/>
 <path fill="none" stroke="rgb(179,179,179)" stroke-linejoin="round" d="M 14492,992 L 1884,992"/>
 <path fill="none" stroke="rgb(179,179,179)" stroke-linejoin="round" d="M 1884,4923 L 1884,4774"/>
 <path fill="none" stroke="rgb(179,179,179)" stroke-linejoin="round" d="M 1884,4923 L 1884,4774"/>
 <path fill="none" stroke="rgb(179,179,179)" stroke-linejoin="round" d="M 3460,4923 L 3460,4774"/>
 <path fill="none" stroke="rgb(179,179,179)" stroke-linejoin="round" d="M 3460,4923 L 3460,4774"/>
 <path fill="none" stroke="rgb(179,179,179)" stroke-linejoin="round" d="M 5036,4923 L 5036,4774"/>
 <path fill="none" stroke="rgb(179,179,179)" stroke-linejoin="round" d="M 5036,4923 L 5036,4774"/>
 <path fill="none" stroke="rgb(179,179,179)" stroke-linejoin="round" d="M 6612,4923 L 6612,4774"/>
 <path fill="none" stroke="rgb(179,179,179)" stroke-linejoin="round" d="M 6612,4923 L 6612,4774"/>
 <path fill="none" stroke="rgb(179,179,179)" stroke-linejoin="round" d="M 8187,4923 L 8187,4774"/>
 <path fill="none" stroke="rgb(179,179,179)" stroke-linejoin="round" d="M 8187,4923 L 8187,4774"/>
 <path fill="none" stroke="rgb(179,179,179)" stroke-linejoin="round" d="M 9764,4923 L 9764,4774"/>
 <path fill="none" stroke="rgb(179,179,179)" stroke-linejoin="round" d="M 9764,4923 L 9764,4774"/>
 <path fill="none" stroke="rgb(179,179,179)" stroke-linejoin="round" d="M 11340,4923 L 11340,4774"/>
 <path fill="none" stroke="rgb(179,179,179)" stroke-linejoin="round" d="M 11340,4923 L 11340,4774"/>
 <path fill="none" stroke="rgb(179,179,179)" stroke-linejoin="round" d="M 12916,4923 L 12916,4774"/>
 <path fill="none" stroke="rgb(179,179,179)" stroke-linejoin="round" d="M 12916,4923 L 12916,4774"/>
 <path fill="none" stroke="rgb(179,179,179)" stroke-linejoin="round" d="M 14492,4923 L 14492,4774"/>
 <path fill="none" stroke="rgb(179,179,179)" stroke-linejoin="round" d="M 14492,4923 L 14492,4774"/>
 <path fill="none" stroke="rgb(179,179,179)" stroke-linejoin="round" d="M 1884,4774 L 14492,4774"/>
 <path fill="none" stroke="rgb(179,179,179)" stroke-linejoin="round" d="M 1734,4774 L 1884,4774"/>
 <path fill="none" stroke="rgb(179,179,179)" stroke-linejoin="round" d="M 1734,4774 L 1884,4774"/>
 <path fill="none" stroke="rgb(179,179,179)" stroke-linejoin="round" d="M 1734,4234 L 1884,4234"/>
 <path fill="none" stroke="rgb(179,179,179)" stroke-linejoin="round" d="M 1734,4234 L 1884,4234"/>
 <path fill="none" stroke="rgb(179,179,179)" stroke-linejoin="round" d="M 1734,3694 L 1884,3694"/>
 <path fill="none" stroke="rgb(179,179,179)" stroke-linejoin="round" d="M 1734,3694 L 1884,3694"/>
 <path fill="none" stroke="rgb(179,179,179)" stroke-linejoin="round" d="M 1734,3154 L 1884,3154"/>
 <path fill="none" stroke="rgb(179,179,179)" stroke-linejoin="round" d="M 1734,3154 L 1884,3154"/>
 <path fill="none" stroke="rgb(179,179,179)" stroke-linejoin="round" d="M 1734,2614 L 1884,2614"/>
 <path fill="none" stroke="rgb(179,179,179)" stroke-linejoin="round" d="M 1734,2614 L 1884,2614"/>
 <path fill="none" stroke="rgb(179,179,179)" stroke-linejoin="round" d="M 1734,2072 L 1884,2072"/>
 <path fill="none" stroke="rgb(179,179,179)" stroke-linejoin="round" d="M 1734,2072 L 1884,2072"/>
 <path fill="none" stroke="rgb(179,179,179)" stroke-linejoin="round" d="M 1734,1533 L 1884,1533"/>
 <path fill="none" stroke="rgb(179,179,179)" stroke-linejoin="round" d="M 1734,1533 L 1884,1533"/>
 <path fill="none" stroke="rgb(179,179,179)" stroke-linejoin="round" d="M 1734,992 L 1884,992"/>
 <path fill="none" stroke="rgb(179,179,179)" stroke-linejoin="round" d="M 1734,992 L 1884,992"/>
 <path fill="none" stroke="rgb(179,179,179)" stroke-linejoin="round" d="M 1884,4774 L 1884,992"/>
 <path fill="rgb(31,120,180)" stroke="none" d="M 13310,4774 L 14098,4774 14098,4344 13310,4344 13310,4774 Z"/>
 <path fill="rgb(31,120,180)" stroke="none" d="M 11734,4774 L 12522,4774 12522,4344 11734,4344 11734,4774 Z"/>
 <path fill="rgb(31,120,180)" stroke="none" d="M 10158,4774 L 10946,4774 10946,4344 10158,4344 10158,4774 Z"/>
 <path fill="rgb(31,120,180)" stroke="none" d="M 8582,4774 L 9370,4774 9370,4114 8582,4114 8582,4774 Z"/>
 <path fill="rgb(31,120,180)" stroke="none" d="M 7006,4774 L 7793,4774 7793,4114 7006,4114 7006,4774 Z"/>
 <path fill="rgb(31,120,180)" stroke="none" d="M 5430,4774 L 6218,4774 6218,4120 5430,4120 5430,4774 Z"/>
 <path fill="rgb(31,120,180)" stroke="none" d="M 3854,4774 L 4642,4774 4642,4266 3854,4266 3854,4774 Z"/>
 <path fill="rgb(31,120,180)" stroke="none" d="M 2278,4774 L 3066,4774 3066,4352 2278,4352 2278,4774 Z"/>
 <path fill="none" stroke="rgb(239,138,98)" stroke-width="80" stroke-linejoin="round" d="M 2672,1317 L 4248,1317 5824,1317 7400,1317 8976,1317 10552,1317 12128,1317 13704,1317"/>
 <text class="TextShape"><tspan class="TextParagraph" font-family="Liberation Sans, sans-serif" font-size="352px" font-weight="400"><tspan class="TextPosition" x="1449" y="4894"><tspan fill="rgb(0,0,0)" stroke="none">0</tspan></tspan></tspan></text>
 <text class="TextShape"><tspan class="TextParagraph" font-family="Liberation Sans, sans-serif" font-size="352px" font-weight="400"><tspan class="TextPosition" x="1078" y="4354"><tspan fill="rgb(0,0,0)" stroke="none">200</tspan></tspan></tspan></text>
 <text class="TextShape"><tspan class="TextParagraph" font-family="Liberation Sans, sans-serif" font-size="352px" font-weight="400"><tspan class="TextPosition" x="1078" y="3814"><tspan fill="rgb(0,0,0)" stroke="none">400</tspan></tspan></tspan></text>
 <text class="TextShape"><tspan class="TextParagraph" font-family="Liberation Sans, sans-serif" font-size="352px" font-weight="400"><tspan class="TextPosition" x="1078" y="3274"><tspan fill="rgb(0,0,0)" stroke="none">600</tspan></tspan></tspan></text>
 <text class="TextShape"><tspan class="TextParagraph" font-family="Liberation Sans, sans-serif" font-size="352px" font-weight="400"><tspan class="TextPosition" x="1078" y="2734"><tspan fill="rgb(0,0,0)" stroke="none">800</tspan></tspan></tspan></text>
 <text class="TextShape"><tspan class="TextParagraph" font-family="Liberation Sans, sans-serif" font-size="352px" font-weight="400"><tspan class="TextPosition" x="893" y="2193"><tspan fill="rgb(0,0,0)" stroke="none">1000</tspan></tspan></tspan></text>
 <text class="TextShape"><tspan class="TextParagraph" font-family="Liberation Sans, sans-serif" font-size="352px" font-weight="400"><tspan class="TextPosition" x="893" y="1653"><tspan fill="rgb(0,0,0)" stroke="none">1200</tspan></tspan></tspan></text>
 <text class="TextShape"><tspan class="TextParagraph" font-family="Liberation Sans, sans-serif" font-size="352px" font-weight="400"><tspan class="TextPosition" x="893" y="1112"><tspan fill="rgb(0,0,0)" stroke="none">1400</tspan></tspan></tspan></text>
 <text class="TextShape"><tspan class="TextParagraph" font-family="Liberation Sans, sans-serif" font-size="352px" font-weight="400"><tspan class="TextPosition" x="2394" y="4175"><tspan fill="rgb(0,0,0)" stroke="none">156</tspan></tspan></tspan></text>
 <text class="TextShape"><tspan class="TextParagraph" font-family="Liberation Sans, sans-serif" font-size="352px" font-weight="400"><tspan class="TextPosition" x="3970" y="4088"><tspan fill="rgb(0,0,0)" stroke="none">188</tspan></tspan></tspan></text>
 <text class="TextShape"><tspan class="TextParagraph" font-family="Liberation Sans, sans-serif" font-size="352px" font-weight="400"><tspan class="TextPosition" x="5546" y="3943"><tspan fill="rgb(0,0,0)" stroke="none">242</tspan></tspan></tspan></text>
 <text class="TextShape"><tspan class="TextParagraph" font-family="Liberation Sans, sans-serif" font-size="352px" font-weight="400"><tspan class="TextPosition" x="7122" y="3937"><tspan fill="rgb(0,0,0)" stroke="none">244</tspan></tspan></tspan></text>
 <text class="TextShape"><tspan class="TextParagraph" font-family="Liberation Sans, sans-serif" font-size="352px" font-weight="400"><tspan class="TextPosition" x="8699" y="3937"><tspan fill="rgb(0,0,0)" stroke="none">244</tspan></tspan></tspan></text>
 <text class="TextShape"><tspan class="TextParagraph" font-family="Liberation Sans, sans-serif" font-size="352px" font-weight="400"><tspan class="TextPosition" x="10275" y="4167"><tspan fill="rgb(0,0,0)" stroke="none">159</tspan></tspan></tspan></text>
 <text class="TextShape"><tspan class="TextParagraph" font-family="Liberation Sans, sans-serif" font-size="352px" font-weight="400"><tspan class="TextPosition" x="11851" y="4167"><tspan fill="rgb(0,0,0)" stroke="none">159</tspan></tspan></tspan></text>
 <text class="TextShape"><tspan class="TextParagraph" font-family="Liberation Sans, sans-serif" font-size="352px" font-weight="400"><tspan class="TextPosition" x="13427" y="4167"><tspan fill="rgb(0,0,0)" stroke="none">159</tspan></tspan></tspan></text>
 <path fill="rgb(31,120,180)" stroke="none" d="M 4137,453 L 3737,453 3737,243 4537,243 4537,453 4137,453 Z"/>
 <path fill="none" stroke="rgb(239,138,98)" stroke-width="80" stroke-linejoin="round" d="M 7048,348 L 7847,348"/>
 <text class="TextShape"><tspan class="TextParagraph" font-family="Liberation Sans, sans-serif" font-size="352px" font-weight="400"><tspan class="TextPosition" x="4637" y="467"><tspan fill="rgb(0,0,0)" stroke="none">Largest packet</tspan></tspan></tspan></text>
 <text class="TextShape"><tspan class="TextParagraph" font-family="Liberation Sans, sans-serif" font-size="352px" font-weight="400"><tspan class="TextPosition" x="7947" y="467"><tspan fill="rgb(0,0,0)" stroke="none">Max MTU (1280 bytes)</tspan></tspan></tspan></text>
 <text class="TextShape" transform="rotate(-90 527 4176)"><tspan class="TextParagraph" font-family="Liberation Sans, sans-serif" font-size="353px" font-weight="400"><tspan class="TextPosition" x="527" y="4176"><tspan fill="rgb(0,0,0)" stroke="none">Number of bytes</tspan></tspan></tspan></text>
</svg>