<?xml version="1.0" encoding="UTF-8"?>
<!DOCTYPE svg PUBLIC "-//W3C//DTD SVG 1.1//EN" "http://www.w3.org/Graphics/SVG/1.1/DTD/svg11.dtd">
<svg width="150mm" height="90mm" viewBox="0 0 15000 9000" version="1.1" xmlns="http://www.w3.org/2000/svg" xmlns:xlink="http://www.w3.org/1999/xlink" stroke-width="28.222" stroke-linejoin="round" xml:space="preserve">
 <path fill="rgb(255,255,255)" stroke="none" d="M 7500,9000 L 0,9000 0,0 15000,0 15000,9000 7500,9000 Z"/>
 <path fill="none" stroke="rgb(179,179,179)" stroke-linejoin="round" d="M 14497,6494 L 1760,6494"/>
 <path fill="none" stroke="rgb(179,179,179)" stroke-linejoin="round" d="M 14497,5577 L 1760,5577"/>
 <path fill="none" stroke="rgb(179,179,179)" stroke-linejoin="round" d="M 14497,4661 L 1760,4661"/>
 <path fill="none" stroke="rgb(179,179,179)" stroke-linejoin="round" d="M 14497,3746 L 1760,3746"/>
 <path fill="none" stroke="rgb(179,179,179)" stroke-linejoin="round" d="M 14497,2830 L 1760,2830"/>
 <path fill="none" stroke="rgb(179,179,179)" stroke-linejoin="round" d="M 14497,1914 L 1760,1914"/>
 <path fill="none" stroke="rgb(179,179,179)" stroke-linejoin="round" d="M 14497,998 L 1760,998"/>
 <path fill="none" stroke="rgb(179,179,179)" stroke-linejoin="round" d="M 1760,6644 L 1760,6494"/>
 <path fill="none" stroke="rgb(179,179,179)" stroke-linejoin="round" d="M 1760,6644 L 1760,6494"/>
 <path fill="none" stroke="rgb(179,179,179)" stroke-linejoin="round" d="M 3352,6644 L 3352,6494"/>
 <path fill="none" stroke="rgb(179,179,179)" stroke-linejoin="round" d="M 3352,6644 L 3352,6494"/>
 <path fill="none" stroke="rgb(179,179,179)" stroke-linejoin="round" d="M 4944,6644 L 4944,6494"/>
 <path fill="none" stroke="rgb(179,179,179)" stroke-linejoin="round" d="M 4944,6644 L 4944,6494"/>
 <path fill="none" stroke="rgb(179,179,179)" stroke-linejoin="round" d="M 6536,6644 L 6536,6494"/>
 <path fill="none" stroke="rgb(179,179,179)" stroke-linejoin="round" d="M 6536,6644 L 6536,6494"/>
 <path fill="none" stroke="rgb(179,179,179)" stroke-linejoin="round" d="M 8128,6644 L 8128,6494"/>
 <path fill="none" stroke="rgb(179,179,179)" stroke-linejoin="round" d="M 8128,6644 L 8128,6494"/>
 <path fill="none" stroke="rgb(179,179,179)" stroke-linejoin="round" d="M 9720,6644 L 9720,6494"/>
 <path fill="none" stroke="rgb(179,179,179)" stroke-linejoin="round" d="M 9720,6644 L 9720,6494"/>
 <path fill="none" stroke="rgb(179,179,179)" stroke-linejoin="round" d="M 11312,6644 L 11312,6494"/>
 <path fill="none" stroke="rgb(179,179,179)" stroke-linejoin="round" d="M 11312,6644 L 11312,6494"/>
 <path fill="none" stroke="rgb(179,179,179)" stroke-linejoin="round" d="M 12904,6644 L 12904,6494"/>
 <path fill="none" stroke="rgb(179,179,179)" stroke-linejoin="round" d="M 12904,6644 L 12904,6494"/>
 <path fill="none" stroke="rgb(179,179,179)" stroke-linejoin="round" d="M 14497,6644 L 14497,6494"/>
 <path fill="none" stroke="rgb(179,179,179)" stroke-linejoin="round" d="M 14497,6644 L 14497,6494"/>
 <path fill="none" stroke="rgb(179,179,179)" stroke-linejoin="round" d="M 1760,6494 L 14497,6494"/>
 <path fill="none" stroke="rgb(179,179,179)" stroke-linejoin="round" d="M 1610,6494 L 1760,6494"/>
 <path fill="none" stroke="rgb(179,179,179)" stroke-linejoin="round" d="M 1610,6494 L 1760,6494"/>
 <path fill="none" stroke="rgb(179,179,179)" stroke-linejoin="round" d="M 1610,5577 L 1760,5577"/>
 <path fill="none" stroke="rgb(179,179,179)" stroke-linejoin="round" d="M 1610,5577 L 1760,5577"/>
 <path fill="none" stroke="rgb(179,179,179)" stroke-linejoin="round" d="M 1610,4661 L 1760,4661"/>
 <path fill="none" stroke="rgb(179,179,179)" stroke-linejoin="round" d="M 1610,4661 L 1760,4661"/>
 <path fill="none" stroke="rgb(179,179,179)" stroke-linejoin="round" d="M 1610,3746 L 1760,3746"/>
 <path fill="none" stroke="rgb(179,179,179)" stroke-linejoin="round" d="M 1610,3746 L 1760,3746"/>
 <path fill="none" stroke="rgb(179,179,179)" stroke-linejoin="round" d="M 1610,2830 L 1760,2830"/>
 <path fill="none" stroke="rgb(179,179,179)" stroke-linejoin="round" d="M 1610,2830 L 1760,2830"/>
 <path fill="none" stroke="rgb(179,179,179)" stroke-linejoin="round" d="M 1610,1914 L 1760,1914"/>
 <path fill="none" stroke="rgb(179,179,179)" stroke-linejoin="round" d="M 1610,1914 L 1760,1914"/>
 <path fill="none" stroke="rgb(179,179,179)" stroke-linejoin="round" d="M 1610,998 L 1760,998"/>
 <path fill="none" stroke="rgb(179,179,179)" stroke-linejoin="round" d="M 1610,998 L 1760,998"/>
 <path fill="none" stroke="rgb(179,179,179)" stroke-linejoin="round" d="M 1760,6494 L 1760,998"/>
 <path fill="rgb(227,26,28)" stroke="none" d="M 13302,6494 L 14098,6494 14098,6494 13302,6494 Z"/>
 <path fill="rgb(227,26,28)" stroke="none" d="M 11710,6494 L 12506,6494 12506,6494 11710,6494 Z"/>
 <path fill="rgb(227,26,28)" stroke="none" d="M 10118,6494 L 10914,6494 10914,6494 10118,6494 Z"/>
 <path fill="rgb(227,26,28)" stroke="none" d="M 8526,6494 L 9322,6494 9322,5284 8526,5284 8526,6494 Z"/>
 <path fill="rgb(227,26,28)" stroke="none" d="M 6934,6494 L 7729,6494 7729,5376 6934,5376 6934,6494 Z"/>
 <path fill="rgb(227,26,28)" stroke="none" d="M 5342,6494 L 6138,6494 6138,5651 5342,5651 5342,6494 Z"/>
 <path fill="rgb(227,26,28)" stroke="none" d="M 3750,6494 L 4546,6494 4546,6494 3750,6494 Z"/>
 <path fill="rgb(227,26,28)" stroke="none" d="M 2158,6494 L 2954,6494 2954,6494 2158,6494 Z"/>
 <path fill="rgb(251,154,153)" stroke="none" d="M 13302,6494 L 14098,6494 14098,6494 13302,6494 Z"/>
 <path fill="rgb(251,154,153)" stroke="none" d="M 11710,6494 L 12506,6494 12506,6494 11710,6494 Z"/>
 <path fill="rgb(251,154,153)" stroke="none" d="M 10118,6494 L 10914,6494 10914,6494 10118,6494 Z"/>
 <path fill="rgb(251,154,153)" stroke="none" d="M 8526,5284 L 9322,5284 9322,3783 8526,3783 8526,5284 Z"/>
 <path fill="rgb(251,154,153)" stroke="none" d="M 6934,5376 L 7729,5376 7729,3966 6934,3966 6934,5376 Z"/>
 <path fill="rgb(251,154,153)" stroke="none" d="M 5342,5651 L 6138,5651 6138,4625 5342,4625 5342,5651 Z"/>
 <path fill="rgb(251,154,153)" stroke="none" d="M 3750,6494 L 4546,6494 4546,6494 3750,6494 Z"/>
 <path fill="rgb(251,154,153)" stroke="none" d="M 2158,6494 L 2954,6494 2954,6494 2158,6494 Z"/>
 <path fill="rgb(51,160,44)" stroke="none" d="M 13302,6494 L 14098,6494 14098,6164 13302,6164 13302,6494 Z"/>
 <path fill="rgb(51,160,44)" stroke="none" d="M 11710,6494 L 12506,6494 12506,6237 11710,6237 11710,6494 Z"/>
 <path fill="rgb(51,160,44)" stroke="none" d="M 10118,6494 L 10914,6494 10914,6274 10118,6274 10118,6494 Z"/>
 <path fill="rgb(51,160,44)" stroke="none" d="M 3750,6494 L 4546,6494 4546,6274 3750,6274 3750,6494 Z"/>
 <path fill="rgb(51,160,44)" stroke="none" d="M 2158,6494 L 2954,6494 2954,6457 2158,6457 2158,6494 Z"/>
 <path fill="rgb(178,223,138)" stroke="none" d="M 13302,6164 L 14098,6164 14098,5834 13302,5834 13302,6164 Z"/>
 <path fill="rgb(178,223,138)" stroke="none" d="M 11710,6237 L 12506,6237 12506,5980 11710,5980 11710,6237 Z"/>
 <path fill="rgb(178,223,138)" stroke="none" d="M 10118,6274 L 10914,6274 10914,6054 10118,6054 10118,6274 Z"/>
 <path fill="rgb(178,223,138)" stroke="none" d="M 3750,6274 L 4546,6274 4546,6127 3750,6127 3750,6274 Z"/>
 <path fill="rgb(178,223,138)" stroke="none" d="M 2158,6457 L 2954,6457 2954,6420 2158,6420 2158,6457 Z"/>
 <path fill="rgb(31,120,180)" stroke="none" d="M 13302,5834 L 14098,5834 14098,4570 13302,4570 13302,5834 Z"/>
 <path fill="rgb(31,120,180)" stroke="none" d="M 11710,5980 L 12506,5980 12506,4739 11710,4739 11710,5980 Z"/>
 <path fill="rgb(31,120,180)" stroke="none" d="M 10118,6054 L 10914,6054 10914,4844 10118,4844 10118,6054 Z"/>
 <path fill="rgb(31,120,180)" stroke="none" d="M 8526,3783 L 9322,3783 9322,2500 8526,2500 8526,3783 Z"/>
 <path fill="rgb(31,120,180)" stroke="none" d="M 6934,3966 L 7729,3966 7729,2720 6934,2720 6934,3966 Z"/>
 <path fill="rgb(31,120,180)" stroke="none" d="M 5342,4625 L 6138,4625 6138,3407 5342,3407 5342,4625 Z"/>
 <path fill="rgb(31,120,180)" stroke="none" d="M 3750,6127 L 4546,6127 4546,4250 3750,4250 3750,6127 Z"/>
 <path fill="rgb(31,120,180)" stroke="none" d="M 2158,6420 L 2954,6420 2954,5990 2158,5990 2158,6420 Z"/>
 <path fill="rgb(131,202,255)" stroke="none" d="M 13302,4570 L 14098,4570 14098,3961 13302,3961 13302,4570 Z"/>
 <path fill="rgb(131,202,255)" stroke="none" d="M 11710,4739 L 12506,4739 12506,4154 11710,4154 11710,4739 Z"/>
 <path fill="rgb(131,202,255)" stroke="none" d="M 10118,4844 L 10914,4844 10914,4291 10118,4291 10118,4844 Z"/>
 <path fill="rgb(131,202,255)" stroke="none" d="M 8526,2500 L 9322,2500 9322,1607 8526,1607 8526,2500 Z"/>
 <path fill="rgb(131,202,255)" stroke="none" d="M 6934,2720 L 7729,2720 7729,1863 6934,1863 6934,2720 Z"/>
 <path fill="rgb(131,202,255)" stroke="none" d="M 5342,3407 L 6138,3407 6138,2578 5342,2578 5342,3407 Z"/>
 <path fill="rgb(131,202,255)" stroke="none" d="M 3750,4250 L 4546,4250 4546,2527 3750,2527 3750,4250 Z"/>
 <path fill="rgb(131,202,255)" stroke="none" d="M 2158,5990 L 2954,5990 2954,5559 2158,5559 2158,5990 Z"/>
 <text class="TextShape" transform="rotate(-44.9 1442 8167)"><tspan class="TextParagraph" font-family="Liberation Sans, sans-serif" font-size="353px" font-weight="400"><tspan class="TextPosition" x="1442" y="8167"><tspan fill="rgb(0,0,0)" stroke="none">CoAP (c/n)</tspan></tspan></tspan></text>
 <text class="TextShape" transform="rotate(-44.9 2529 8672)"><tspan class="TextParagraph" font-family="Liberation Sans, sans-serif" font-size="353px" font-weight="400"><tspan class="TextPosition" x="2529" y="8672"><tspan fill="rgb(0,0,0)" stroke="none">CoAP Sec (c/n)</tspan></tspan></tspan></text>
 <text class="TextShape" transform="rotate(-44.9 4775 8017)"><tspan class="TextParagraph" font-family="Liberation Sans, sans-serif" font-size="353px" font-weight="400"><tspan class="TextPosition" x="4775" y="8017"><tspan fill="rgb(0,0,0)" stroke="none">MQTT (0)</tspan></tspan></tspan></text>
 <text class="TextShape" transform="rotate(-44.9 6367 8017)"><tspan class="TextParagraph" font-family="Liberation Sans, sans-serif" font-size="353px" font-weight="400"><tspan class="TextPosition" x="6367" y="8017"><tspan fill="rgb(0,0,0)" stroke="none">MQTT (1)</tspan></tspan></tspan></text>
 <text class="TextShape" transform="rotate(-44.9 7960 8017)"><tspan class="TextParagraph" font-family="Liberation Sans, sans-serif" font-size="353px" font-weight="400"><tspan class="TextPosition" x="7960" y="8017"><tspan fill="rgb(0,0,0)" stroke="none">MQTT (2)</tspan></tspan></tspan></text>
 <text class="TextShape" transform="rotate(-44.9 9140 8429)"><tspan class="TextParagraph" font-family="Liberation Sans, sans-serif" font-size="353px" font-weight="400"><tspan class="TextPosition" x="9140" y="8429"><tspan fill="rgb(0,0,0)" stroke="none">MQTT-SN (0)</tspan></tspan></tspan></text>
 <text class="TextShape" transform="rotate(-44.9 10731 8429)"><tspan class="TextParagraph" font-family="Liberation Sans, sans-serif" font-size="353px" font-weight="400"><tspan class="TextPosition" x="10731" y="8429"><tspan fill="rgb(0,0,0)" stroke="none">MQTT-SN (1)</tspan></tspan></tspan></text>
 <text class="TextShape" transform="rotate(-44.9 12323 8429)"><tspan class="TextParagraph" font-family="Liberation Sans, sans-serif" font-size="353px" font-weight="400"><tspan class="TextPosition" x="12323" y="8429"><tspan fill="rgb(0,0,0)" stroke="none">MQTT-SN (2)</tspan></tspan></tspan></text>
 <text class="TextShape"><tspan class="TextParagraph" font-family="Liberation Sans, sans-serif" font-size="353px" font-weight="400"><tspan class="TextPosition" x="1325" y="6615"><tspan fill="rgb(0,0,0)" stroke="none">0</tspan></tspan></tspan></text>
 <text class="TextShape"><tspan class="TextParagraph" font-family="Liberation Sans, sans-serif" font-size="353px" font-weight="400"><tspan class="TextPosition" x="954" y="5698"><tspan fill="rgb(0,0,0)" stroke="none">200</tspan></tspan></tspan></text>
 <text class="TextShape"><tspan class="TextParagraph" font-family="Liberation Sans, sans-serif" font-size="353px" font-weight="400"><tspan class="TextPosition" x="954" y="4782"><tspan fill="rgb(0,0,0)" stroke="none">400</tspan></tspan></tspan></text>
 <text class="TextShape"><tspan class="TextParagraph" font-family="Liberation Sans, sans-serif" font-size="353px" font-weight="400"><tspan class="TextPosition" x="954" y="3866"><tspan fill="rgb(0,0,0)" stroke="none">600</tspan></tspan></tspan></text>
 <text class="TextShape"><tspan class="TextParagraph" font-family="Liberation Sans, sans-serif" font-size="353px" font-weight="400"><tspan class="TextPosition" x="954" y="2950"><tspan fill="rgb(0,0,0)" stroke="none">800</tspan></tspan></tspan></text>
 <text class="TextShape"><tspan class="TextParagraph" font-family="Liberation Sans, sans-serif" font-size="353px" font-weight="400"><tspan class="TextPosition" x="769" y="2034"><tspan fill="rgb(0,0,0)" stroke="none">1000</tspan></tspan></tspan></text>
 <text class="TextShape"><tspan class="TextParagraph" font-family="Liberation Sans, sans-serif" font-size="353px" font-weight="400"><tspan class="TextPosition" x="769" y="1118"><tspan fill="rgb(0,0,0)" stroke="none">1200</tspan></tspan></tspan></text>
 <text class="TextShape"><tspan class="TextParagraph" font-family="Liberation Sans, sans-serif" font-size="353px" font-weight="400"><tspan class="TextPosition" x="2278" y="5380"><tspan fill="rgb(0,0,0)" stroke="none">204</tspan></tspan></tspan></text>
 <text class="TextShape"><tspan class="TextParagraph" font-family="Liberation Sans, sans-serif" font-size="353px" font-weight="400"><tspan class="TextPosition" x="3870" y="2348"><tspan fill="rgb(0,0,0)" stroke="none">866</tspan></tspan></tspan></text>
 <text class="TextShape"><tspan class="TextParagraph" font-family="Liberation Sans, sans-serif" font-size="353px" font-weight="400"><tspan class="TextPosition" x="5462" y="2399"><tspan fill="rgb(0,0,0)" stroke="none">855</tspan></tspan></tspan></text>
 <text class="TextShape"><tspan class="TextParagraph" font-family="Liberation Sans, sans-serif" font-size="353px" font-weight="400"><tspan class="TextPosition" x="6961" y="1684"><tspan fill="rgb(0,0,0)" stroke="none">1011</tspan></tspan></tspan></text>
 <text class="TextShape"><tspan class="TextParagraph" font-family="Liberation Sans, sans-serif" font-size="353px" font-weight="400"><tspan class="TextPosition" x="8554" y="1428"><tspan fill="rgb(0,0,0)" stroke="none">1067</tspan></tspan></tspan></text>
 <text class="TextShape"><tspan class="TextParagraph" font-family="Liberation Sans, sans-serif" font-size="353px" font-weight="400"><tspan class="TextPosition" x="10239" y="4112"><tspan fill="rgb(0,0,0)" stroke="none">481</tspan></tspan></tspan></text>
 <text class="TextShape"><tspan class="TextParagraph" font-family="Liberation Sans, sans-serif" font-size="353px" font-weight="400"><tspan class="TextPosition" x="11831" y="3975"><tspan fill="rgb(0,0,0)" stroke="none">511</tspan></tspan></tspan></text>
 <text class="TextShape"><tspan class="TextParagraph" font-family="Liberation Sans, sans-serif" font-size="353px" font-weight="400"><tspan class="TextPosition" x="13423" y="3782"><tspan fill="rgb(0,0,0)" stroke="none">553</tspan></tspan></tspan></text>
 <path fill="rgb(227,26,28)" stroke="none" d="M 13154,455 L 13048,455 13048,244 13259,244 13259,455 13154,455 Z"/>
 <path fill="rgb(251,154,153)" stroke="none" d="M 10570,455 L 10464,455 10464,244 10675,244 10675,455 10570,455 Z"/>
 <path fill="rgb(51,160,44)" stroke="none" d="M 8594,455 L 8488,455 8488,244 8699,244 8699,455 8594,455 Z"/>
 <path fill="rgb(178,223,138)" stroke="none" d="M 5983,455 L 5878,455 5878,244 6089,244 6089,455 5983,455 Z"/>
 <path fill="rgb(31,120,180)" stroke="none" d="M 3452,455 L 3347,455 3347,244 3558,244 3558,455 3452,455 Z"/>
 <path fill="rgb(131,202,255)" stroke="none" d="M 286,455 L 181,455 181,244 392,244 392,455 286,455 Z"/>
 <text class="TextShape"><tspan class="TextParagraph" font-family="Liberation Sans, sans-serif" font-size="353px" font-weight="400"><tspan class="TextPosition" x="492" y="469"><tspan fill="rgb(0,0,0)" stroke="none">Protocol received</tspan></tspan></tspan></text>
 <text class="TextShape"><tspan class="TextParagraph" font-family="Liberation Sans, sans-serif" font-size="353px" font-weight="400"><tspan class="TextPosition" x="3658" y="469"><tspan fill="rgb(0,0,0)" stroke="none">Protocol sent</tspan></tspan></tspan></text>
 <text class="TextShape"><tspan class="TextParagraph" font-family="Liberation Sans, sans-serif" font-size="353px" font-weight="400"><tspan class="TextPosition" x="6189" y="469"><tspan fill="rgb(0,0,0)" stroke="none">UDP received</tspan></tspan></tspan></text>
 <text class="TextShape"><tspan class="TextParagraph" font-family="Liberation Sans, sans-serif" font-size="353px" font-weight="400"><tspan class="TextPosition" x="8799" y="469"><tspan fill="rgb(0,0,0)" stroke="none">UDP sent</tspan></tspan></tspan></text>
 <text class="TextShape"><tspan class="TextParagraph" font-family="Liberation Sans, sans-serif" font-size="353px" font-weight="400"><tspan class="TextPosition" x="10775" y="469"><tspan fill="rgb(0,0,0)" stroke="none">TCP received</tspan></tspan></tspan></text>
 <text class="TextShape"><tspan class="TextParagraph" font-family="Liberation Sans, sans-serif" font-size="353px" font-weight="400"><tspan class="TextPosition" x="13359" y="469"><tspan fill="rgb(0,0,0)" stroke="none">TCP sent</tspan></tspan></tspan></text>
 <text class="TextShape" transform="rotate(-90 527 5024)"><tspan class="TextParagraph" font-family="Liberation Sans, sans-serif" font-size="353px" font-weight="400"><tspan class="TextPosition" x="527" y="5024"><tspan fill="rgb(0,0,0)" stroke="none">Number of bytes</tspan></tspan></tspan></text>
</svg>