<?xml version="1.0" encoding="UTF-8"?>
<!DOCTYPE svg PUBLIC "-//W3C//DTD SVG 1.1//EN" "http://www.w3.org/Graphics/SVG/1.1/DTD/svg11.dtd">
<svg width="190mm" height="90mm" viewBox="0 0 19000 9000" version="1.1" xmlns="http://www.w3.org/2000/svg" xmlns:xlink="http://www.w3.org/1999/xlink" stroke-width="28.222" stroke-linejoin="round" xml:space="preserve">
 <path fill="rgb(255,255,255)" stroke="none" d="M 9500,9000 L 0,9000 0,0 19000,0 19000,9000 9500,9000 Z"/>
 <path fill="none" stroke="rgb(179,179,179)" stroke-linejoin="round" d="M 18493,7989 L 2141,7989"/>
 <path fill="none" stroke="rgb(179,179,179)" stroke-linejoin="round" d="M 18493,6823 L 2141,6823"/>
 <path fill="none" stroke="rgb(179,179,179)" stroke-linejoin="round" d="M 18493,5658 L 2141,5658"/>
 <path fill="none" stroke="rgb(179,179,179)" stroke-linejoin="round" d="M 18493,4494 L 2141,4494"/>
 <path fill="none" stroke="rgb(179,179,179)" stroke-linejoin="round" d="M 18493,3328 L 2141,3328"/>
 <path fill="none" stroke="rgb(179,179,179)" stroke-linejoin="round" d="M 18493,2163 L 2141,2163"/>
 <path fill="none" stroke="rgb(179,179,179)" stroke-linejoin="round" d="M 18493,998 L 2141,998"/>
 <path fill="none" stroke="rgb(179,179,179)" stroke-linejoin="round" d="M 2141,8139 L 2141,7989"/>
 <path fill="none" stroke="rgb(179,179,179)" stroke-linejoin="round" d="M 2141,8139 L 2141,7989"/>
 <path fill="none" stroke="rgb(179,179,179)" stroke-linejoin="round" d="M 4866,8139 L 4866,7989"/>
 <path fill="none" stroke="rgb(179,179,179)" stroke-linejoin="round" d="M 4866,8139 L 4866,7989"/>
 <path fill="none" stroke="rgb(179,179,179)" stroke-linejoin="round" d="M 7592,8139 L 7592,7989"/>
 <path fill="none" stroke="rgb(179,179,179)" stroke-linejoin="round" d="M 7592,8139 L 7592,7989"/>
 <path fill="none" stroke="rgb(179,179,179)" stroke-linejoin="round" d="M 10316,8139 L 10316,7989"/>
 <path fill="none" stroke="rgb(179,179,179)" stroke-linejoin="round" d="M 10316,8139 L 10316,7989"/>
 <path fill="none" stroke="rgb(179,179,179)" stroke-linejoin="round" d="M 13042,8139 L 13042,7989"/>
 <path fill="none" stroke="rgb(179,179,179)" stroke-linejoin="round" d="M 13042,8139 L 13042,7989"/>
 <path fill="none" stroke="rgb(179,179,179)" stroke-linejoin="round" d="M 15767,8139 L 15767,7989"/>
 <path fill="none" stroke="rgb(179,179,179)" stroke-linejoin="round" d="M 15767,8139 L 15767,7989"/>
 <path fill="none" stroke="rgb(179,179,179)" stroke-linejoin="round" d="M 18493,8139 L 18493,7989"/>
 <path fill="none" stroke="rgb(179,179,179)" stroke-linejoin="round" d="M 18493,8139 L 18493,7989"/>
 <path fill="none" stroke="rgb(179,179,179)" stroke-linejoin="round" d="M 2141,7989 L 18493,7989"/>
 <path fill="none" stroke="rgb(179,179,179)" stroke-linejoin="round" d="M 1991,7989 L 2141,7989"/>
 <path fill="none" stroke="rgb(179,179,179)" stroke-linejoin="round" d="M 1991,7989 L 2141,7989"/>
 <path fill="none" stroke="rgb(179,179,179)" stroke-linejoin="round" d="M 1991,6823 L 2141,6823"/>
 <path fill="none" stroke="rgb(179,179,179)" stroke-linejoin="round" d="M 1991,6823 L 2141,6823"/>
 <path fill="none" stroke="rgb(179,179,179)" stroke-linejoin="round" d="M 1991,5658 L 2141,5658"/>
 <path fill="none" stroke="rgb(179,179,179)" stroke-linejoin="round" d="M 1991,5658 L 2141,5658"/>
 <path fill="none" stroke="rgb(179,179,179)" stroke-linejoin="round" d="M 1991,4494 L 2141,4494"/>
 <path fill="none" stroke="rgb(179,179,179)" stroke-linejoin="round" d="M 1991,4494 L 2141,4494"/>
 <path fill="none" stroke="rgb(179,179,179)" stroke-linejoin="round" d="M 1991,3328 L 2141,3328"/>
 <path fill="none" stroke="rgb(179,179,179)" stroke-linejoin="round" d="M 1991,3328 L 2141,3328"/>
 <path fill="none" stroke="rgb(179,179,179)" stroke-linejoin="round" d="M 1991,2163 L 2141,2163"/>
 <path fill="none" stroke="rgb(179,179,179)" stroke-linejoin="round" d="M 1991,2163 L 2141,2163"/>
 <path fill="none" stroke="rgb(179,179,179)" stroke-linejoin="round" d="M 1991,998 L 2141,998"/>
 <path fill="none" stroke="rgb(179,179,179)" stroke-linejoin="round" d="M 1991,998 L 2141,998"/>
 <path fill="none" stroke="rgb(179,179,179)" stroke-linejoin="round" d="M 2141,7989 L 2141,998"/>
 <path fill="rgb(145,207,96)" stroke="none" d="M 16221,7989 L 17130,7989 17130,7989 16221,7989 Z"/>
 <path fill="rgb(145,207,96)" stroke="none" d="M 13496,7989 L 14404,7989 14404,4978 13496,4978 13496,7989 Z"/>
 <path fill="rgb(145,207,96)" stroke="none" d="M 10770,7989 L 11679,7989 11679,3944 10770,3944 10770,7989 Z"/>
 <path fill="rgb(145,207,96)" stroke="none" d="M 8046,7989 L 8954,7989 8954,2899 8046,2899 8046,7989 Z"/>
 <path fill="rgb(145,207,96)" stroke="none" d="M 5320,7989 L 6229,7989 6229,5181 5320,5181 5320,7989 Z"/>
 <path fill="rgb(145,207,96)" stroke="none" d="M 2595,7989 L 3503,7989 3503,7989 2595,7989 Z"/>
 <path fill="rgb(252,141,89)" stroke="none" d="M 17130,7989 L 18038,7989 18038,7989 17130,7989 Z"/>
 <path fill="rgb(252,141,89)" stroke="none" d="M 14404,7989 L 15313,7989 15313,6751 14404,6751 14404,7989 Z"/>
 <path fill="rgb(252,141,89)" stroke="none" d="M 11679,7989 L 12587,7989 12587,6695 11679,6695 11679,7989 Z"/>
 <path fill="rgb(252,141,89)" stroke="none" d="M 8954,7989 L 9862,7989 9862,6228 8954,6228 8954,7989 Z"/>
 <path fill="rgb(252,141,89)" stroke="none" d="M 6229,7989 L 7137,7989 7137,6513 6229,6513 6229,7989 Z"/>
 <path fill="rgb(252,141,89)" stroke="none" d="M 3503,7989 L 4412,7989 4412,7989 3503,7989 Z"/>
 <path fill="none" stroke="rgb(26,152,80)" stroke-width="80" stroke-linejoin="round" stroke-dasharray="158,158" d="M 3503,2023 L 6229,2023 8954,2023 11679,2023 14404,2023 17130,2023"/>
 <path fill="none" stroke="rgb(215,48,39)" stroke-width="80" stroke-linejoin="round" stroke-dasharray="158,158" d="M 3503,6199 L 6229,6199 8954,6199 11679,6199 14404,6199 17130,6199"/>
 <text class="TextShape"><tspan class="TextParagraph" font-family="Liberation Sans, sans-serif" font-size="353px" font-weight="400"><tspan class="TextPosition" x="5382" y="8557"><tspan fill="rgb(0,0,0)" stroke="none">CoAP (c/n)</tspan></tspan></tspan></text>
 <text class="TextShape"><tspan class="TextParagraph" font-family="Liberation Sans, sans-serif" font-size="353px" font-weight="400"><tspan class="TextPosition" x="7750" y="8557"><tspan fill="rgb(0,0,0)" stroke="none">CoAP Sec (c/n)</tspan></tspan></tspan></text>
 <text class="TextShape"><tspan class="TextParagraph" font-family="Liberation Sans, sans-serif" font-size="353px" font-weight="400"><tspan class="TextPosition" x="10939" y="8557"><tspan fill="rgb(0,0,0)" stroke="none">MQTT (2)</tspan></tspan></tspan></text>
 <text class="TextShape"><tspan class="TextParagraph" font-family="Liberation Sans, sans-serif" font-size="353px" font-weight="400"><tspan class="TextPosition" x="13373" y="8557"><tspan fill="rgb(0,0,0)" stroke="none">MQTT-SN (2)</tspan></tspan></tspan></text>
 <text class="TextShape"><tspan class="TextParagraph" font-family="Liberation Sans, sans-serif" font-size="353px" font-weight="400"><tspan class="TextPosition" x="1706" y="8110"><tspan fill="rgb(0,0,0)" stroke="none">0</tspan></tspan></tspan></text>
 <text class="TextShape"><tspan class="TextParagraph" font-family="Liberation Sans, sans-serif" font-size="353px" font-weight="400"><tspan class="TextPosition" x="965" y="6944"><tspan fill="rgb(0,0,0)" stroke="none">20000</tspan></tspan></tspan></text>
 <text class="TextShape"><tspan class="TextParagraph" font-family="Liberation Sans, sans-serif" font-size="353px" font-weight="400"><tspan class="TextPosition" x="965" y="5779"><tspan fill="rgb(0,0,0)" stroke="none">40000</tspan></tspan></tspan></text>
 <text class="TextShape"><tspan class="TextParagraph" font-family="Liberation Sans, sans-serif" font-size="353px" font-weight="400"><tspan class="TextPosition" x="965" y="4614"><tspan fill="rgb(0,0,0)" stroke="none">60000</tspan></tspan></tspan></text>
 <text class="TextShape"><tspan class="TextParagraph" font-family="Liberation Sans, sans-serif" font-size="353px" font-weight="400"><tspan class="TextPosition" x="965" y="3448"><tspan fill="rgb(0,0,0)" stroke="none">80000</tspan></tspan></tspan></text>
 <text class="TextShape"><tspan class="TextParagraph" font-family="Liberation Sans, sans-serif" font-size="353px" font-weight="400"><tspan class="TextPosition" x="780" y="2283"><tspan fill="rgb(0,0,0)" stroke="none">100000</tspan></tspan></tspan></text>
 <text class="TextShape"><tspan class="TextParagraph" font-family="Liberation Sans, sans-serif" font-size="353px" font-weight="400"><tspan class="TextPosition" x="780" y="1118"><tspan fill="rgb(0,0,0)" stroke="none">120000</tspan></tspan></tspan></text>
 <text class="TextShape"><tspan class="TextParagraph" font-family="Liberation Sans, sans-serif" font-size="353px" font-weight="400"><tspan class="TextPosition" x="5311" y="5599"><tspan fill="rgb(0,0,0)" stroke="none">48192</tspan></tspan></tspan></text>
 <text class="TextShape"><tspan class="TextParagraph" font-family="Liberation Sans, sans-serif" font-size="353px" font-weight="400"><tspan class="TextPosition" x="8037" y="3317"><tspan fill="rgb(0,0,0)" stroke="none">87372</tspan></tspan></tspan></text>
 <text class="TextShape"><tspan class="TextParagraph" font-family="Liberation Sans, sans-serif" font-size="353px" font-weight="400"><tspan class="TextPosition" x="10763" y="4362"><tspan fill="rgb(0,0,0)" stroke="none">69436</tspan></tspan></tspan></text>
 <text class="TextShape"><tspan class="TextParagraph" font-family="Liberation Sans, sans-serif" font-size="353px" font-weight="400"><tspan class="TextPosition" x="13488" y="5396"><tspan fill="rgb(0,0,0)" stroke="none">51664</tspan></tspan></tspan></text>
 <text class="TextShape"><tspan class="TextParagraph" font-family="Liberation Sans, sans-serif" font-size="353px" font-weight="400"><tspan class="TextPosition" x="6220" y="6931"><tspan fill="rgb(0,0,0)" stroke="none">25324</tspan></tspan></tspan></text>
 <text class="TextShape"><tspan class="TextParagraph" font-family="Liberation Sans, sans-serif" font-size="353px" font-weight="400"><tspan class="TextPosition" x="8946" y="6646"><tspan fill="rgb(0,0,0)" stroke="none">30208</tspan></tspan></tspan></text>
 <text class="TextShape"><tspan class="TextParagraph" font-family="Liberation Sans, sans-serif" font-size="353px" font-weight="400"><tspan class="TextPosition" x="11671" y="7113"><tspan fill="rgb(0,0,0)" stroke="none">22196</tspan></tspan></tspan></text>
 <text class="TextShape"><tspan class="TextParagraph" font-family="Liberation Sans, sans-serif" font-size="353px" font-weight="400"><tspan class="TextPosition" x="14397" y="7169"><tspan fill="rgb(0,0,0)" stroke="none">21232</tspan></tspan></tspan></text>
 <text class="TextShape"><tspan class="TextParagraph" font-family="Liberation Sans, sans-serif" font-size="353px" font-weight="400"><tspan class="TextPosition" x="2947" y="1844"><tspan fill="rgb(0,0,0)" stroke="none">102400</tspan></tspan></tspan></text>
 <text class="TextShape"><tspan class="TextParagraph" font-family="Liberation Sans, sans-serif" font-size="353px" font-weight="400"><tspan class="TextPosition" x="16575" y="1844"><tspan fill="rgb(0,0,0)" stroke="none">102400</tspan></tspan></tspan></text>
 <text class="TextShape"><tspan class="TextParagraph" font-family="Liberation Sans, sans-serif" font-size="353px" font-weight="400"><tspan class="TextPosition" x="3040" y="6020"><tspan fill="rgb(0,0,0)" stroke="none">30720</tspan></tspan></tspan></text>
 <text class="TextShape"><tspan class="TextParagraph" font-family="Liberation Sans, sans-serif" font-size="353px" font-weight="400"><tspan class="TextPosition" x="16668" y="6020"><tspan fill="rgb(0,0,0)" stroke="none">30720</tspan></tspan></tspan></text>
 <path fill="rgb(145,207,96)" stroke="none" d="M 3077,355 L 2277,355 2277,144 3877,144 3877,355 3077,355 Z"/>
 <path fill="rgb(252,141,89)" stroke="none" d="M 6865,355 L 6065,355 6065,144 7665,144 7665,355 6865,355 Z"/>
 <path fill="none" stroke="rgb(26,152,80)" stroke-width="80" stroke-linejoin="round" stroke-dasharray="158,158" d="M 9826,249 L 11426,249"/>
 <path fill="none" stroke="rgb(215,48,39)" stroke-width="80" stroke-linejoin="round" stroke-dasharray="158,158" d="M 13482,249 L 15082,249"/>
 <text class="TextShape"><tspan class="TextParagraph" font-family="Liberation Sans, sans-serif" font-size="353px" font-weight="400"><tspan class="TextPosition" x="3977" y="369"><tspan fill="rgb(0,0,0)" stroke="none">Used ROM</tspan></tspan></tspan></text>
 <text class="TextShape"><tspan class="TextParagraph" font-family="Liberation Sans, sans-serif" font-size="353px" font-weight="400"><tspan class="TextPosition" x="7765" y="369"><tspan fill="rgb(0,0,0)" stroke="none">Used RAM</tspan></tspan></tspan></text>
 <text class="TextShape"><tspan class="TextParagraph" font-family="Liberation Sans, sans-serif" font-size="353px" font-weight="400"><tspan class="TextPosition" x="11526" y="369"><tspan fill="rgb(0,0,0)" stroke="none">Max ROM</tspan></tspan></tspan></text>
 <text class="TextShape"><tspan class="TextParagraph" font-family="Liberation Sans, sans-serif" font-size="353px" font-weight="400"><tspan class="TextPosition" x="15182" y="369"><tspan fill="rgb(0,0,0)" stroke="none">Max RAM</tspan></tspan></tspan></text>
 <text class="TextShape" transform="rotate(-90 524 5649)"><tspan class="TextParagraph" font-family="Liberation Sans, sans-serif" font-size="353px" font-weight="400"><tspan class="TextPosition" x="524" y="5649"><tspan fill="rgb(0,0,0)" stroke="none">Number of bytes</tspan></tspan></tspan></text>
</svg>