<?xml version="1.0" encoding="UTF-8"?>
<!DOCTYPE svg PUBLIC "-//W3C//DTD SVG 1.1//EN" "http://www.w3.org/Graphics/SVG/1.1/DTD/svg11.dtd">
<svg width="150mm" height="90mm" viewBox="0 0 15000 9000" version="1.1" xmlns="http://www.w3.org/2000/svg" xmlns:xlink="http://www.w3.org/1999/xlink" stroke-width="28.222" stroke-linejoin="round" xml:space="preserve">
 <path fill="rgb(255,255,255)" stroke="none" d="M 7500,9000 L 0,9000 0,0 15000,0 15000,9000 7500,9000 Z"/>
 <path fill="none" stroke="rgb(179,179,179)" stroke-linejoin="round" d="M 14496,6494 L 1908,6494"/>
 <path fill="none" stroke="rgb(179,179,179)" stroke-linejoin="round" d="M 14496,5944 L 1908,5944"/>
 <path fill="none" stroke="rgb(179,179,179)" stroke-linejoin="round" d="M 14496,5394 L 1908,5394"/>
 <path fill="none" stroke="rgb(179,179,179)" stroke-linejoin="round" d="M 14496,4844 L 1908,4844"/>
 <path fill="none" stroke="rgb(179,179,179)" stroke-linejoin="round" d="M 14496,4296 L 1908,4296"/>
 <path fill="none" stroke="rgb(179,179,179)" stroke-linejoin="round" d="M 14496,3746 L 1908,3746"/>
 <path fill="none" stroke="rgb(179,179,179)" stroke-linejoin="round" d="M 14496,3196 L 1908,3196"/>
 <path fill="none" stroke="rgb(179,179,179)" stroke-linejoin="round" d="M 14496,2647 L 1908,2647"/>
 <path fill="none" stroke="rgb(179,179,179)" stroke-linejoin="round" d="M 14496,2097 L 1908,2097"/>
 <path fill="none" stroke="rgb(179,179,179)" stroke-linejoin="round" d="M 14496,1547 L 1908,1547"/>
 <path fill="none" stroke="rgb(179,179,179)" stroke-linejoin="round" d="M 14496,998 L 1908,998"/>
 <path fill="none" stroke="rgb(179,179,179)" stroke-linejoin="round" d="M 1908,6644 L 1908,6494"/>
 <path fill="none" stroke="rgb(179,179,179)" stroke-linejoin="round" d="M 1908,6644 L 1908,6494"/>
 <path fill="none" stroke="rgb(179,179,179)" stroke-linejoin="round" d="M 3706,6644 L 3706,6494"/>
 <path fill="none" stroke="rgb(179,179,179)" stroke-linejoin="round" d="M 3706,6644 L 3706,6494"/>
 <path fill="none" stroke="rgb(179,179,179)" stroke-linejoin="round" d="M 5504,6644 L 5504,6494"/>
 <path fill="none" stroke="rgb(179,179,179)" stroke-linejoin="round" d="M 5504,6644 L 5504,6494"/>
 <path fill="none" stroke="rgb(179,179,179)" stroke-linejoin="round" d="M 7303,6644 L 7303,6494"/>
 <path fill="none" stroke="rgb(179,179,179)" stroke-linejoin="round" d="M 7303,6644 L 7303,6494"/>
 <path fill="none" stroke="rgb(179,179,179)" stroke-linejoin="round" d="M 9100,6644 L 9100,6494"/>
 <path fill="none" stroke="rgb(179,179,179)" stroke-linejoin="round" d="M 9100,6644 L 9100,6494"/>
 <path fill="none" stroke="rgb(179,179,179)" stroke-linejoin="round" d="M 10899,6644 L 10899,6494"/>
 <path fill="none" stroke="rgb(179,179,179)" stroke-linejoin="round" d="M 10899,6644 L 10899,6494"/>
 <path fill="none" stroke="rgb(179,179,179)" stroke-linejoin="round" d="M 12697,6644 L 12697,6494"/>
 <path fill="none" stroke="rgb(179,179,179)" stroke-linejoin="round" d="M 12697,6644 L 12697,6494"/>
 <path fill="none" stroke="rgb(179,179,179)" stroke-linejoin="round" d="M 14496,6644 L 14496,6494"/>
 <path fill="none" stroke="rgb(179,179,179)" stroke-linejoin="round" d="M 14496,6644 L 14496,6494"/>
 <path fill="none" stroke="rgb(179,179,179)" stroke-linejoin="round" d="M 1908,6494 L 14496,6494"/>
 <path fill="none" stroke="rgb(179,179,179)" stroke-linejoin="round" d="M 1758,6494 L 1908,6494"/>
 <path fill="none" stroke="rgb(179,179,179)" stroke-linejoin="round" d="M 1758,6494 L 1908,6494"/>
 <path fill="none" stroke="rgb(179,179,179)" stroke-linejoin="round" d="M 1758,5944 L 1908,5944"/>
 <path fill="none" stroke="rgb(179,179,179)" stroke-linejoin="round" d="M 1758,5944 L 1908,5944"/>
 <path fill="none" stroke="rgb(179,179,179)" stroke-linejoin="round" d="M 1758,5394 L 1908,5394"/>
 <path fill="none" stroke="rgb(179,179,179)" stroke-linejoin="round" d="M 1758,5394 L 1908,5394"/>
 <path fill="none" stroke="rgb(179,179,179)" stroke-linejoin="round" d="M 1758,4844 L 1908,4844"/>
 <path fill="none" stroke="rgb(179,179,179)" stroke-linejoin="round" d="M 1758,4844 L 1908,4844"/>
 <path fill="none" stroke="rgb(179,179,179)" stroke-linejoin="round" d="M 1758,4296 L 1908,4296"/>
 <path fill="none" stroke="rgb(179,179,179)" stroke-linejoin="round" d="M 1758,4296 L 1908,4296"/>
 <path fill="none" stroke="rgb(179,179,179)" stroke-linejoin="round" d="M 1758,3746 L 1908,3746"/>
 <path fill="none" stroke="rgb(179,179,179)" stroke-linejoin="round" d="M 1758,3746 L 1908,3746"/>
 <path fill="none" stroke="rgb(179,179,179)" stroke-linejoin="round" d="M 1758,3196 L 1908,3196"/>
 <path fill="none" stroke="rgb(179,179,179)" stroke-linejoin="round" d="M 1758,3196 L 1908,3196"/>
 <path fill="none" stroke="rgb(179,179,179)" stroke-linejoin="round" d="M 1758,2647 L 1908,2647"/>
 <path fill="none" stroke="rgb(179,179,179)" stroke-linejoin="round" d="M 1758,2647 L 1908,2647"/>
 <path fill="none" stroke="rgb(179,179,179)" stroke-linejoin="round" d="M 1758,2097 L 1908,2097"/>
 <path fill="none" stroke="rgb(179,179,179)" stroke-linejoin="round" d="M 1758,2097 L 1908,2097"/>
 <path fill="none" stroke="rgb(179,179,179)" stroke-linejoin="round" d="M 1758,1547 L 1908,1547"/>
 <path fill="none" stroke="rgb(179,179,179)" stroke-linejoin="round" d="M 1758,1547 L 1908,1547"/>
 <path fill="none" stroke="rgb(179,179,179)" stroke-linejoin="round" d="M 1758,998 L 1908,998"/>
 <path fill="none" stroke="rgb(179,179,179)" stroke-linejoin="round" d="M 1758,998 L 1908,998"/>
 <path fill="none" stroke="rgb(179,179,179)" stroke-linejoin="round" d="M 1908,6494 L 1908,998"/>
 <path fill="rgb(31,120,180)" stroke="none" d="M 13147,6494 L 14046,6494 14046,2307 13147,2307 13147,6494 Z"/>
 <path fill="rgb(31,120,180)" stroke="none" d="M 11348,6494 L 12247,6494 12247,2579 11348,2579 11348,6494 Z"/>
 <path fill="rgb(31,120,180)" stroke="none" d="M 9550,6494 L 10449,6494 10449,2778 9550,2778 9550,6494 Z"/>
 <path fill="rgb(31,120,180)" stroke="none" d="M 7751,6494 L 8651,6494 8651,1939 7751,1939 7751,6494 Z"/>
 <path fill="rgb(31,120,180)" stroke="none" d="M 5954,6494 L 6853,6494 6853,2105 5954,2105 5954,6494 Z"/>
 <path fill="rgb(31,120,180)" stroke="none" d="M 4156,6494 L 5055,6494 5055,2392 4156,2392 4156,6494 Z"/>
 <path fill="rgb(31,120,180)" stroke="none" d="M 2357,6494 L 3256,6494 3256,4230 2357,4230 2357,6494 Z"/>
 <path fill="rgb(166,206,227)" stroke="none" d="M 13147,2307 L 14046,2307 14046,998 13147,998 13147,2307 Z"/>
 <path fill="rgb(166,206,227)" stroke="none" d="M 11348,2579 L 12247,2579 12247,998 11348,998 11348,2579 Z"/>
 <path fill="rgb(166,206,227)" stroke="none" d="M 9550,2778 L 10449,2778 10449,998 9550,998 9550,2778 Z"/>
 <path fill="rgb(166,206,227)" stroke="none" d="M 7751,1939 L 8651,1939 8651,998 7751,998 7751,1939 Z"/>
 <path fill="rgb(166,206,227)" stroke="none" d="M 5954,2105 L 6853,2105 6853,998 5954,998 5954,2105 Z"/>
 <path fill="rgb(166,206,227)" stroke="none" d="M 4156,2392 L 5055,2392 5055,998 4156,998 4156,2392 Z"/>
 <path fill="rgb(166,206,227)" stroke="none" d="M 2357,4230 L 3256,4230 3256,998 2357,998 2357,4230 Z"/>
 <text class="TextShape" transform="rotate(-44.9 1693 8167)"><tspan class="TextParagraph" font-family="Liberation Sans, sans-serif" font-size="353px" font-weight="400"><tspan class="TextPosition" x="1693" y="8167"><tspan fill="rgb(0,0,0)" stroke="none">CoAP (c/n)</tspan></tspan></tspan></text>
 <text class="TextShape" transform="rotate(-44.9 3640 8017)"><tspan class="TextParagraph" font-family="Liberation Sans, sans-serif" font-size="353px" font-weight="400"><tspan class="TextPosition" x="3640" y="8017"><tspan fill="rgb(0,0,0)" stroke="none">MQTT (0)</tspan></tspan></tspan></text>
 <text class="TextShape" transform="rotate(-44.9 5439 8017)"><tspan class="TextParagraph" font-family="Liberation Sans, sans-serif" font-size="353px" font-weight="400"><tspan class="TextPosition" x="5439" y="8017"><tspan fill="rgb(0,0,0)" stroke="none">MQTT (1)</tspan></tspan></tspan></text>
 <text class="TextShape" transform="rotate(-44.9 7237 8017)"><tspan class="TextParagraph" font-family="Liberation Sans, sans-serif" font-size="353px" font-weight="400"><tspan class="TextPosition" x="7237" y="8017"><tspan fill="rgb(0,0,0)" stroke="none">MQTT (2)</tspan></tspan></tspan></text>
 <text class="TextShape" transform="rotate(-44.9 8623 8429)"><tspan class="TextParagraph" font-family="Liberation Sans, sans-serif" font-size="353px" font-weight="400"><tspan class="TextPosition" x="8623" y="8429"><tspan fill="rgb(0,0,0)" stroke="none">MQTT-SN (0)</tspan></tspan></tspan></text>
 <text class="TextShape" transform="rotate(-44.9 10422 8429)"><tspan class="TextParagraph" font-family="Liberation Sans, sans-serif" font-size="353px" font-weight="400"><tspan class="TextPosition" x="10422" y="8429"><tspan fill="rgb(0,0,0)" stroke="none">MQTT-SN (1)</tspan></tspan></tspan></text>
 <text class="TextShape" transform="rotate(-44.9 12219 8429)"><tspan class="TextParagraph" font-family="Liberation Sans, sans-serif" font-size="353px" font-weight="400"><tspan class="TextPosition" x="12219" y="8429"><tspan fill="rgb(0,0,0)" stroke="none">MQTT-SN (2)</tspan></tspan></tspan></text>
 <text class="TextShape"><tspan class="TextParagraph" font-family="Liberation Sans, sans-serif" font-size="353px" font-weight="400"><tspan class="TextPosition" x="1155" y="6615"><tspan fill="rgb(0,0,0)" stroke="none">0%</tspan></tspan></tspan></text>
 <text class="TextShape"><tspan class="TextParagraph" font-family="Liberation Sans, sans-serif" font-size="353px" font-weight="400"><tspan class="TextPosition" x="970" y="6065"><tspan fill="rgb(0,0,0)" stroke="none">10%</tspan></tspan></tspan></text>
 <text class="TextShape"><tspan class="TextParagraph" font-family="Liberation Sans, sans-serif" font-size="353px" font-weight="400"><tspan class="TextPosition" x="970" y="5515"><tspan fill="rgb(0,0,0)" stroke="none">20%</tspan></tspan></tspan></text>
 <text class="TextShape"><tspan class="TextParagraph" font-family="Liberation Sans, sans-serif" font-size="353px" font-weight="400"><tspan class="TextPosition" x="970" y="4965"><tspan fill="rgb(0,0,0)" stroke="none">30%</tspan></tspan></tspan></text>
 <text class="TextShape"><tspan class="TextParagraph" font-family="Liberation Sans, sans-serif" font-size="353px" font-weight="400"><tspan class="TextPosition" x="970" y="4416"><tspan fill="rgb(0,0,0)" stroke="none">40%</tspan></tspan></tspan></text>
 <text class="TextShape"><tspan class="TextParagraph" font-family="Liberation Sans, sans-serif" font-size="353px" font-weight="400"><tspan class="TextPosition" x="970" y="3866"><tspan fill="rgb(0,0,0)" stroke="none">50%</tspan></tspan></tspan></text>
 <text class="TextShape"><tspan class="TextParagraph" font-family="Liberation Sans, sans-serif" font-size="353px" font-weight="400"><tspan class="TextPosition" x="970" y="3316"><tspan fill="rgb(0,0,0)" stroke="none">60%</tspan></tspan></tspan></text>
 <text class="TextShape"><tspan class="TextParagraph" font-family="Liberation Sans, sans-serif" font-size="353px" font-weight="400"><tspan class="TextPosition" x="970" y="2767"><tspan fill="rgb(0,0,0)" stroke="none">70%</tspan></tspan></tspan></text>
 <text class="TextShape"><tspan class="TextParagraph" font-family="Liberation Sans, sans-serif" font-size="353px" font-weight="400"><tspan class="TextPosition" x="970" y="2217"><tspan fill="rgb(0,0,0)" stroke="none">80%</tspan></tspan></tspan></text>
 <text class="TextShape"><tspan class="TextParagraph" font-family="Liberation Sans, sans-serif" font-size="353px" font-weight="400"><tspan class="TextPosition" x="970" y="1667"><tspan fill="rgb(0,0,0)" stroke="none">90%</tspan></tspan></tspan></text>
 <text class="TextShape"><tspan class="TextParagraph" font-family="Liberation Sans, sans-serif" font-size="353px" font-weight="400"><tspan class="TextPosition" x="785" y="1118"><tspan fill="rgb(0,0,0)" stroke="none">100%</tspan></tspan></tspan></text>
 <text class="TextShape" transform="rotate(-90 2927 5705)"><tspan class="TextParagraph" font-family="Liberation Sans, sans-serif" font-size="353px" font-weight="400"><tspan class="TextPosition" x="2927" y="5705"><tspan fill="rgb(0,0,0)" stroke="none">41%</tspan></tspan></tspan></text>
 <text class="TextShape" transform="rotate(-90 4725 4786)"><tspan class="TextParagraph" font-family="Liberation Sans, sans-serif" font-size="353px" font-weight="400"><tspan class="TextPosition" x="4725" y="4786"><tspan fill="rgb(0,0,0)" stroke="none">75%</tspan></tspan></tspan></text>
 <text class="TextShape" transform="rotate(-90 6524 4643)"><tspan class="TextParagraph" font-family="Liberation Sans, sans-serif" font-size="353px" font-weight="400"><tspan class="TextPosition" x="6524" y="4643"><tspan fill="rgb(0,0,0)" stroke="none">80%</tspan></tspan></tspan></text>
 <text class="TextShape" transform="rotate(-90 8322 4560)"><tspan class="TextParagraph" font-family="Liberation Sans, sans-serif" font-size="353px" font-weight="400"><tspan class="TextPosition" x="8322" y="4560"><tspan fill="rgb(0,0,0)" stroke="none">83%</tspan></tspan></tspan></text>
 <text class="TextShape" transform="rotate(-90 10120 4979)"><tspan class="TextParagraph" font-family="Liberation Sans, sans-serif" font-size="353px" font-weight="400"><tspan class="TextPosition" x="10120" y="4979"><tspan fill="rgb(0,0,0)" stroke="none">68%</tspan></tspan></tspan></text>
 <text class="TextShape" transform="rotate(-90 11919 4880)"><tspan class="TextParagraph" font-family="Liberation Sans, sans-serif" font-size="353px" font-weight="400"><tspan class="TextPosition" x="11919" y="4880"><tspan fill="rgb(0,0,0)" stroke="none">71%</tspan></tspan></tspan></text>
 <text class="TextShape" transform="rotate(-90 13717 4744)"><tspan class="TextParagraph" font-family="Liberation Sans, sans-serif" font-size="353px" font-weight="400"><tspan class="TextPosition" x="13717" y="4744"><tspan fill="rgb(0,0,0)" stroke="none">76%</tspan></tspan></tspan></text>
 <text class="TextShape" transform="rotate(-90 2927 2957)"><tspan class="TextParagraph" font-family="Liberation Sans, sans-serif" font-size="353px" font-weight="400"><tspan class="TextPosition" x="2927" y="2957"><tspan fill="rgb(0,0,0)" stroke="none">59%</tspan></tspan></tspan></text>
 <text class="TextShape" transform="rotate(-90 4725 2038)"><tspan class="TextParagraph" font-family="Liberation Sans, sans-serif" font-size="353px" font-weight="400"><tspan class="TextPosition" x="4725" y="2038"><tspan fill="rgb(0,0,0)" stroke="none">25%</tspan></tspan></tspan></text>
 <text class="TextShape" transform="rotate(-90 6524 1894)"><tspan class="TextParagraph" font-family="Liberation Sans, sans-serif" font-size="353px" font-weight="400"><tspan class="TextPosition" x="6524" y="1894"><tspan fill="rgb(0,0,0)" stroke="none">20%</tspan></tspan></tspan></text>
 <text class="TextShape" transform="rotate(-90 8322 1811)"><tspan class="TextParagraph" font-family="Liberation Sans, sans-serif" font-size="353px" font-weight="400"><tspan class="TextPosition" x="8322" y="1811"><tspan fill="rgb(0,0,0)" stroke="none">17%</tspan></tspan></tspan></text>
 <text class="TextShape" transform="rotate(-90 10120 2231)"><tspan class="TextParagraph" font-family="Liberation Sans, sans-serif" font-size="353px" font-weight="400"><tspan class="TextPosition" x="10120" y="2231"><tspan fill="rgb(0,0,0)" stroke="none">32%</tspan></tspan></tspan></text>
 <text class="TextShape" transform="rotate(-90 11919 2131)"><tspan class="TextParagraph" font-family="Liberation Sans, sans-serif" font-size="353px" font-weight="400"><tspan class="TextPosition" x="11919" y="2131"><tspan fill="rgb(0,0,0)" stroke="none">29%</tspan></tspan></tspan></text>
 <text class="TextShape" transform="rotate(-90 13717 1995)"><tspan class="TextParagraph" font-family="Liberation Sans, sans-serif" font-size="353px" font-weight="400"><tspan class="TextPosition" x="13717" y="1995"><tspan fill="rgb(0,0,0)" stroke="none">24%</tspan></tspan></tspan></text>
 <path fill="rgb(31,120,180)" stroke="none" d="M 7842,455 L 7736,455 7736,244 7947,244 7947,455 7842,455 Z"/>
 <path fill="rgb(166,206,227)" stroke="none" d="M 5492,455 L 5387,455 5387,244 5598,244 5598,455 5492,455 Z"/>
 <text class="TextShape"><tspan class="TextParagraph" font-family="Liberation Sans, sans-serif" font-size="353px" font-weight="400"><tspan class="TextPosition" x="5698" y="469"><tspan fill="rgb(0,0,0)" stroke="none">Payload</tspan></tspan></tspan></text>
 <text class="TextShape"><tspan class="TextParagraph" font-family="Liberation Sans, sans-serif" font-size="353px" font-weight="400"><tspan class="TextPosition" x="8047" y="469"><tspan fill="rgb(0,0,0)" stroke="none">Overhead</tspan></tspan></tspan></text>
 <text class="TextShape" transform="rotate(-90 528 6333)"><tspan class="TextParagraph" font-family="Liberation Sans, sans-serif" font-size="353px" font-weight="400"><tspan class="TextPosition" x="528" y="6333"><tspan fill="rgb(0,0,0)" stroke="none">Payload-to-Overhead Ratio (%)</tspan></tspan></tspan></text>
</svg>