<?xml version="1.0" encoding="UTF-8"?>
<!DOCTYPE svg PUBLIC "-//W3C//DTD SVG 1.1//EN" "http://www.w3.org/Graphics/SVG/1.1/DTD/svg11.dtd">
<svg width="150mm" height="70mm" viewBox="0 0 15000 7000" version="1.1" xmlns="http://www.w3.org/2000/svg" xmlns:xlink="http://www.w3.org/1999/xlink" stroke-width="28.222" stroke-linejoin="round" xml:space="preserve">
 <path fill="rgb(255,255,255)" stroke="none" d="M 7500,7000 L 0,7000 0,0 15000,0 15000,7000 7500,7000 Z"/>
 <path fill="none" stroke="rgb(179,179,179)" stroke-linejoin="round" d="M 14495,4793 L 1859,4793"/>
 <path fill="none" stroke="rgb(179,179,179)" stroke-linejoin="round" d="M 14495,4250 L 1859,4250"/>
 <path fill="none" stroke="rgb(179,179,179)" stroke-linejoin="round" d="M 14495,3708 L 1859,3708"/>
 <path fill="none" stroke="rgb(179,179,179)" stroke-linejoin="round" d="M 14495,3167 L 1859,3167"/>
 <path fill="none" stroke="rgb(179,179,179)" stroke-linejoin="round" d="M 14495,2624 L 1859,2624"/>
 <path fill="none" stroke="rgb(179,179,179)" stroke-linejoin="round" d="M 14495,2082 L 1859,2082"/>
 <path fill="none" stroke="rgb(179,179,179)" stroke-linejoin="round" d="M 14495,1540 L 1859,1540"/>
 <path fill="none" stroke="rgb(179,179,179)" stroke-linejoin="round" d="M 14495,997 L 1859,997"/>
 <path fill="none" stroke="rgb(179,179,179)" stroke-linejoin="round" d="M 1859,4943 L 1859,4793"/>
 <path fill="none" stroke="rgb(179,179,179)" stroke-linejoin="round" d="M 1859,4943 L 1859,4793"/>
 <path fill="none" stroke="rgb(179,179,179)" stroke-linejoin="round" d="M 3664,4943 L 3664,4793"/>
 <path fill="none" stroke="rgb(179,179,179)" stroke-linejoin="round" d="M 3664,4943 L 3664,4793"/>
 <path fill="none" stroke="rgb(179,179,179)" stroke-linejoin="round" d="M 5469,4943 L 5469,4793"/>
 <path fill="none" stroke="rgb(179,179,179)" stroke-linejoin="round" d="M 5469,4943 L 5469,4793"/>
 <path fill="none" stroke="rgb(179,179,179)" stroke-linejoin="round" d="M 7274,4943 L 7274,4793"/>
 <path fill="none" stroke="rgb(179,179,179)" stroke-linejoin="round" d="M 7274,4943 L 7274,4793"/>
 <path fill="none" stroke="rgb(179,179,179)" stroke-linejoin="round" d="M 9079,4943 L 9079,4793"/>
 <path fill="none" stroke="rgb(179,179,179)" stroke-linejoin="round" d="M 9079,4943 L 9079,4793"/>
 <path fill="none" stroke="rgb(179,179,179)" stroke-linejoin="round" d="M 10884,4943 L 10884,4793"/>
 <path fill="none" stroke="rgb(179,179,179)" stroke-linejoin="round" d="M 10884,4943 L 10884,4793"/>
 <path fill="none" stroke="rgb(179,179,179)" stroke-linejoin="round" d="M 12689,4943 L 12689,4793"/>
 <path fill="none" stroke="rgb(179,179,179)" stroke-linejoin="round" d="M 12689,4943 L 12689,4793"/>
 <path fill="none" stroke="rgb(179,179,179)" stroke-linejoin="round" d="M 14495,4943 L 14495,4793"/>
 <path fill="none" stroke="rgb(179,179,179)" stroke-linejoin="round" d="M 14495,4943 L 14495,4793"/>
 <path fill="none" stroke="rgb(179,179,179)" stroke-linejoin="round" d="M 1859,4793 L 14495,4793"/>
 <path fill="none" stroke="rgb(179,179,179)" stroke-linejoin="round" d="M 1709,4793 L 1859,4793"/>
 <path fill="none" stroke="rgb(179,179,179)" stroke-linejoin="round" d="M 1709,4793 L 1859,4793"/>
 <path fill="none" stroke="rgb(179,179,179)" stroke-linejoin="round" d="M 1709,4250 L 1859,4250"/>
 <path fill="none" stroke="rgb(179,179,179)" stroke-linejoin="round" d="M 1709,4250 L 1859,4250"/>
 <path fill="none" stroke="rgb(179,179,179)" stroke-linejoin="round" d="M 1709,3708 L 1859,3708"/>
 <path fill="none" stroke="rgb(179,179,179)" stroke-linejoin="round" d="M 1709,3708 L 1859,3708"/>
 <path fill="none" stroke="rgb(179,179,179)" stroke-linejoin="round" d="M 1709,3167 L 1859,3167"/>
 <path fill="none" stroke="rgb(179,179,179)" stroke-linejoin="round" d="M 1709,3167 L 1859,3167"/>
 <path fill="none" stroke="rgb(179,179,179)" stroke-linejoin="round" d="M 1709,2624 L 1859,2624"/>
 <path fill="none" stroke="rgb(179,179,179)" stroke-linejoin="round" d="M 1709,2624 L 1859,2624"/>
 <path fill="none" stroke="rgb(179,179,179)" stroke-linejoin="round" d="M 1709,2082 L 1859,2082"/>
 <path fill="none" stroke="rgb(179,179,179)" stroke-linejoin="round" d="M 1709,2082 L 1859,2082"/>
 <path fill="none" stroke="rgb(179,179,179)" stroke-linejoin="round" d="M 1709,1540 L 1859,1540"/>
 <path fill="none" stroke="rgb(179,179,179)" stroke-linejoin="round" d="M 1709,1540 L 1859,1540"/>
 <path fill="none" stroke="rgb(179,179,179)" stroke-linejoin="round" d="M 1709,997 L 1859,997"/>
 <path fill="none" stroke="rgb(179,179,179)" stroke-linejoin="round" d="M 1709,997 L 1859,997"/>
 <path fill="none" stroke="rgb(179,179,179)" stroke-linejoin="round" d="M 1859,4793 L 1859,997"/>
 <path fill="rgb(31,120,180)" stroke="none" d="M 13141,4793 L 14043,4793 14043,3053 13141,3053 13141,4793 Z"/>
 <path fill="rgb(31,120,180)" stroke="none" d="M 11335,4793 L 12238,4793 12238,3053 11335,3053 11335,4793 Z"/>
 <path fill="rgb(31,120,180)" stroke="none" d="M 9530,4793 L 10433,4793 10433,3053 9530,3053 9530,4793 Z"/>
 <path fill="rgb(31,120,180)" stroke="none" d="M 7725,4793 L 8627,4793 8627,2852 7725,2852 7725,4793 Z"/>
 <path fill="rgb(31,120,180)" stroke="none" d="M 5920,4793 L 6823,4793 6823,2852 5920,2852 5920,4793 Z"/>
 <path fill="rgb(31,120,180)" stroke="none" d="M 4115,4793 L 5018,4793 5018,2858 4115,2858 4115,4793 Z"/>
 <path fill="rgb(31,120,180)" stroke="none" d="M 2310,4793 L 3212,4793 3212,3069 2310,3069 2310,4793 Z"/>
 <path fill="none" stroke="rgb(239,138,98)" stroke-width="80" stroke-linejoin="round" d="M 2761,1323 L 4566,1323 6372,1323 8176,1323 9981,1323 11787,1323 13592,1323"/>
 <text class="TextShape" transform="rotate(-44.9 1647 6466)"><tspan class="TextParagraph" font-family="Liberation Sans, sans-serif" font-size="353px" font-weight="400"><tspan class="TextPosition" x="1647" y="6466"><tspan fill="rgb(0,0,0)" stroke="none">CoAP (c/n)</tspan></tspan></tspan></text>
 <text class="TextShape" transform="rotate(-44.9 3601 6316)"><tspan class="TextParagraph" font-family="Liberation Sans, sans-serif" font-size="353px" font-weight="400"><tspan class="TextPosition" x="3601" y="6316"><tspan fill="rgb(0,0,0)" stroke="none">MQTT (0)</tspan></tspan></tspan></text>
 <text class="TextShape" transform="rotate(-44.9 5407 6316)"><tspan class="TextParagraph" font-family="Liberation Sans, sans-serif" font-size="353px" font-weight="400"><tspan class="TextPosition" x="5407" y="6316"><tspan fill="rgb(0,0,0)" stroke="none">MQTT (1)</tspan></tspan></tspan></text>
 <text class="TextShape" transform="rotate(-44.9 7212 6316)"><tspan class="TextParagraph" font-family="Liberation Sans, sans-serif" font-size="353px" font-weight="400"><tspan class="TextPosition" x="7212" y="6316"><tspan fill="rgb(0,0,0)" stroke="none">MQTT (2)</tspan></tspan></tspan></text>
 <text class="TextShape" transform="rotate(-44.9 8605 6728)"><tspan class="TextParagraph" font-family="Liberation Sans, sans-serif" font-size="353px" font-weight="400"><tspan class="TextPosition" x="8605" y="6728"><tspan fill="rgb(0,0,0)" stroke="none">MQTT-SN (0)</tspan></tspan></tspan></text>
 <text class="TextShape" transform="rotate(-44.9 10411 6728)"><tspan class="TextParagraph" font-family="Liberation Sans, sans-serif" font-size="353px" font-weight="400"><tspan class="TextPosition" x="10411" y="6728"><tspan fill="rgb(0,0,0)" stroke="none">MQTT-SN (1)</tspan></tspan></tspan></text>
 <text class="TextShape" transform="rotate(-44.9 12215 6728)"><tspan class="TextParagraph" font-family="Liberation Sans, sans-serif" font-size="353px" font-weight="400"><tspan class="TextPosition" x="12215" y="6728"><tspan fill="rgb(0,0,0)" stroke="none">MQTT-SN (2)</tspan></tspan></tspan></text>
 <text class="TextShape"><tspan class="TextParagraph" font-family="Liberation Sans, sans-serif" font-size="353px" font-weight="400"><tspan class="TextPosition" x="1424" y="4914"><tspan fill="rgb(0,0,0)" stroke="none">0</tspan></tspan></tspan></text>
 <text class="TextShape"><tspan class="TextParagraph" font-family="Liberation Sans, sans-serif" font-size="353px" font-weight="400"><tspan class="TextPosition" x="1053" y="4371"><tspan fill="rgb(0,0,0)" stroke="none">200</tspan></tspan></tspan></text>
 <text class="TextShape"><tspan class="TextParagraph" font-family="Liberation Sans, sans-serif" font-size="353px" font-weight="400"><tspan class="TextPosition" x="1053" y="3829"><tspan fill="rgb(0,0,0)" stroke="none">400</tspan></tspan></tspan></text>
 <text class="TextShape"><tspan class="TextParagraph" font-family="Liberation Sans, sans-serif" font-size="353px" font-weight="400"><tspan class="TextPosition" x="1053" y="3287"><tspan fill="rgb(0,0,0)" stroke="none">600</tspan></tspan></tspan></text>
 <text class="TextShape"><tspan class="TextParagraph" font-family="Liberation Sans, sans-serif" font-size="353px" font-weight="400"><tspan class="TextPosition" x="1053" y="2744"><tspan fill="rgb(0,0,0)" stroke="none">800</tspan></tspan></tspan></text>
 <text class="TextShape"><tspan class="TextParagraph" font-family="Liberation Sans, sans-serif" font-size="353px" font-weight="400"><tspan class="TextPosition" x="868" y="2202"><tspan fill="rgb(0,0,0)" stroke="none">1000</tspan></tspan></tspan></text>
 <text class="TextShape"><tspan class="TextParagraph" font-family="Liberation Sans, sans-serif" font-size="353px" font-weight="400"><tspan class="TextPosition" x="868" y="1660"><tspan fill="rgb(0,0,0)" stroke="none">1200</tspan></tspan></tspan></text>
 <text class="TextShape"><tspan class="TextParagraph" font-family="Liberation Sans, sans-serif" font-size="353px" font-weight="400"><tspan class="TextPosition" x="868" y="1117"><tspan fill="rgb(0,0,0)" stroke="none">1400</tspan></tspan></tspan></text>
 <text class="TextShape"><tspan class="TextParagraph" font-family="Liberation Sans, sans-serif" font-size="353px" font-weight="400"><tspan class="TextPosition" x="2483" y="2891"><tspan fill="rgb(0,0,0)" stroke="none">636</tspan></tspan></tspan></text>
 <text class="TextShape"><tspan class="TextParagraph" font-family="Liberation Sans, sans-serif" font-size="353px" font-weight="400"><tspan class="TextPosition" x="4288" y="2680"><tspan fill="rgb(0,0,0)" stroke="none">714</tspan></tspan></tspan></text>
 <text class="TextShape"><tspan class="TextParagraph" font-family="Liberation Sans, sans-serif" font-size="353px" font-weight="400"><tspan class="TextPosition" x="6094" y="2674"><tspan fill="rgb(0,0,0)" stroke="none">716</tspan></tspan></tspan></text>
 <text class="TextShape"><tspan class="TextParagraph" font-family="Liberation Sans, sans-serif" font-size="353px" font-weight="400"><tspan class="TextPosition" x="7899" y="2674"><tspan fill="rgb(0,0,0)" stroke="none">716</tspan></tspan></tspan></text>
 <text class="TextShape"><tspan class="TextParagraph" font-family="Liberation Sans, sans-serif" font-size="353px" font-weight="400"><tspan class="TextPosition" x="9704" y="2875"><tspan fill="rgb(0,0,0)" stroke="none">642</tspan></tspan></tspan></text>
 <text class="TextShape"><tspan class="TextParagraph" font-family="Liberation Sans, sans-serif" font-size="353px" font-weight="400"><tspan class="TextPosition" x="11510" y="2875"><tspan fill="rgb(0,0,0)" stroke="none">642</tspan></tspan></tspan></text>
 <text class="TextShape"><tspan class="TextParagraph" font-family="Liberation Sans, sans-serif" font-size="353px" font-weight="400"><tspan class="TextPosition" x="13315" y="2875"><tspan fill="rgb(0,0,0)" stroke="none">642</tspan></tspan></tspan></text>
 <path fill="rgb(31,120,180)" stroke="none" d="M 3979,455 L 3579,455 3579,244 4379,244 4379,455 3979,455 Z"/>
 <path fill="none" stroke="rgb(239,138,98)" stroke-width="80" stroke-linejoin="round" d="M 6890,349 L 7689,349"/>
 <text class="TextShape"><tspan class="TextParagraph" font-family="Liberation Sans, sans-serif" font-size="353px" font-weight="400"><tspan class="TextPosition" x="4479" y="469"><tspan fill="rgb(0,0,0)" stroke="none">Largest packet</tspan></tspan></tspan></text>
 <text class="TextShape"><tspan class="TextParagraph" font-family="Liberation Sans, sans-serif" font-size="353px" font-weight="400"><tspan class="TextPosition" x="7789" y="469"><tspan fill="rgb(0,0,0)" stroke="none">Max MTU (1280 bytes)</tspan></tspan></tspan></text>
 <text class="TextShape" transform="rotate(-90 528 4142)"><tspan class="TextParagraph" font-family="Liberation Sans, sans-serif" font-size="353px" font-weight="400"><tspan class="TextPosition" x="528" y="4142"><tspan fill="rgb(0,0,0)" stroke="none">Number of bytes</tspan></tspan></tspan></text>
</svg>