<?xml version="1.0" encoding="UTF-8"?>
<!DOCTYPE svg PUBLIC "-//W3C//DTD SVG 1.1//EN" "http://www.w3.org/Graphics/SVG/1.1/DTD/svg11.dtd">
<svg width="150mm" height="90mm" viewBox="0 0 15000 9000" version="1.1" xmlns="http://www.w3.org/2000/svg" xmlns:xlink="http://www.w3.org/1999/xlink" stroke-width="28.222" stroke-linejoin="round" xml:space="preserve">
 <path fill="rgb(255,255,255)" stroke="none" d="M 7500,9000 L 0,9000 0,0 15000,0 15000,9000 7500,9000 Z"/>
 <path fill="none" stroke="rgb(179,179,179)" stroke-linejoin="round" d="M 14493,6488 L 1859,6488"/>
 <path fill="none" stroke="rgb(179,179,179)" stroke-linejoin="round" d="M 14493,5938 L 1859,5938"/>
 <path fill="none" stroke="rgb(179,179,179)" stroke-linejoin="round" d="M 14493,5389 L 1859,5389"/>
 <path fill="none" stroke="rgb(179,179,179)" stroke-linejoin="round" d="M 14493,4840 L 1859,4840"/>
 <path fill="none" stroke="rgb(179,179,179)" stroke-linejoin="round" d="M 14493,4292 L 1859,4292"/>
 <path fill="none" stroke="rgb(179,179,179)" stroke-linejoin="round" d="M 14493,3743 L 1859,3743"/>
 <path fill="none" stroke="rgb(179,179,179)" stroke-linejoin="round" d="M 14493,3193 L 1859,3193"/>
 <path fill="none" stroke="rgb(179,179,179)" stroke-linejoin="round" d="M 14493,2644 L 1859,2644"/>
 <path fill="none" stroke="rgb(179,179,179)" stroke-linejoin="round" d="M 14493,2095 L 1859,2095"/>
 <path fill="none" stroke="rgb(179,179,179)" stroke-linejoin="round" d="M 14493,1546 L 1859,1546"/>
 <path fill="none" stroke="rgb(179,179,179)" stroke-linejoin="round" d="M 14493,997 L 1859,997"/>
 <path fill="none" stroke="rgb(179,179,179)" stroke-linejoin="round" d="M 1859,6638 L 1859,6488"/>
 <path fill="none" stroke="rgb(179,179,179)" stroke-linejoin="round" d="M 1859,6638 L 1859,6488"/>
 <path fill="none" stroke="rgb(179,179,179)" stroke-linejoin="round" d="M 3664,6638 L 3664,6488"/>
 <path fill="none" stroke="rgb(179,179,179)" stroke-linejoin="round" d="M 3664,6638 L 3664,6488"/>
 <path fill="none" stroke="rgb(179,179,179)" stroke-linejoin="round" d="M 5469,6638 L 5469,6488"/>
 <path fill="none" stroke="rgb(179,179,179)" stroke-linejoin="round" d="M 5469,6638 L 5469,6488"/>
 <path fill="none" stroke="rgb(179,179,179)" stroke-linejoin="round" d="M 7274,6638 L 7274,6488"/>
 <path fill="none" stroke="rgb(179,179,179)" stroke-linejoin="round" d="M 7274,6638 L 7274,6488"/>
 <path fill="none" stroke="rgb(179,179,179)" stroke-linejoin="round" d="M 9078,6638 L 9078,6488"/>
 <path fill="none" stroke="rgb(179,179,179)" stroke-linejoin="round" d="M 9078,6638 L 9078,6488"/>
 <path fill="none" stroke="rgb(179,179,179)" stroke-linejoin="round" d="M 10883,6638 L 10883,6488"/>
 <path fill="none" stroke="rgb(179,179,179)" stroke-linejoin="round" d="M 10883,6638 L 10883,6488"/>
 <path fill="none" stroke="rgb(179,179,179)" stroke-linejoin="round" d="M 12688,6638 L 12688,6488"/>
 <path fill="none" stroke="rgb(179,179,179)" stroke-linejoin="round" d="M 12688,6638 L 12688,6488"/>
 <path fill="none" stroke="rgb(179,179,179)" stroke-linejoin="round" d="M 14493,6638 L 14493,6488"/>
 <path fill="none" stroke="rgb(179,179,179)" stroke-linejoin="round" d="M 14493,6638 L 14493,6488"/>
 <path fill="none" stroke="rgb(179,179,179)" stroke-linejoin="round" d="M 1859,6488 L 14493,6488"/>
 <path fill="none" stroke="rgb(179,179,179)" stroke-linejoin="round" d="M 1709,6488 L 1859,6488"/>
 <path fill="none" stroke="rgb(179,179,179)" stroke-linejoin="round" d="M 1709,6488 L 1859,6488"/>
 <path fill="none" stroke="rgb(179,179,179)" stroke-linejoin="round" d="M 1709,5938 L 1859,5938"/>
 <path fill="none" stroke="rgb(179,179,179)" stroke-linejoin="round" d="M 1709,5938 L 1859,5938"/>
 <path fill="none" stroke="rgb(179,179,179)" stroke-linejoin="round" d="M 1709,5389 L 1859,5389"/>
 <path fill="none" stroke="rgb(179,179,179)" stroke-linejoin="round" d="M 1709,5389 L 1859,5389"/>
 <path fill="none" stroke="rgb(179,179,179)" stroke-linejoin="round" d="M 1709,4840 L 1859,4840"/>
 <path fill="none" stroke="rgb(179,179,179)" stroke-linejoin="round" d="M 1709,4840 L 1859,4840"/>
 <path fill="none" stroke="rgb(179,179,179)" stroke-linejoin="round" d="M 1709,4292 L 1859,4292"/>
 <path fill="none" stroke="rgb(179,179,179)" stroke-linejoin="round" d="M 1709,4292 L 1859,4292"/>
 <path fill="none" stroke="rgb(179,179,179)" stroke-linejoin="round" d="M 1709,3743 L 1859,3743"/>
 <path fill="none" stroke="rgb(179,179,179)" stroke-linejoin="round" d="M 1709,3743 L 1859,3743"/>
 <path fill="none" stroke="rgb(179,179,179)" stroke-linejoin="round" d="M 1709,3193 L 1859,3193"/>
 <path fill="none" stroke="rgb(179,179,179)" stroke-linejoin="round" d="M 1709,3193 L 1859,3193"/>
 <path fill="none" stroke="rgb(179,179,179)" stroke-linejoin="round" d="M 1709,2644 L 1859,2644"/>
 <path fill="none" stroke="rgb(179,179,179)" stroke-linejoin="round" d="M 1709,2644 L 1859,2644"/>
 <path fill="none" stroke="rgb(179,179,179)" stroke-linejoin="round" d="M 1709,2095 L 1859,2095"/>
 <path fill="none" stroke="rgb(179,179,179)" stroke-linejoin="round" d="M 1709,2095 L 1859,2095"/>
 <path fill="none" stroke="rgb(179,179,179)" stroke-linejoin="round" d="M 1709,1546 L 1859,1546"/>
 <path fill="none" stroke="rgb(179,179,179)" stroke-linejoin="round" d="M 1709,1546 L 1859,1546"/>
 <path fill="none" stroke="rgb(179,179,179)" stroke-linejoin="round" d="M 1709,997 L 1859,997"/>
 <path fill="none" stroke="rgb(179,179,179)" stroke-linejoin="round" d="M 1709,997 L 1859,997"/>
 <path fill="none" stroke="rgb(179,179,179)" stroke-linejoin="round" d="M 1859,6488 L 1859,997"/>
 <path fill="rgb(227,26,28)" stroke="none" d="M 13139,6488 L 14041,6488 14041,6488 13139,6488 Z"/>
 <path fill="rgb(227,26,28)" stroke="none" d="M 11334,6488 L 12236,6488 12236,6488 11334,6488 Z"/>
 <path fill="rgb(227,26,28)" stroke="none" d="M 9529,6488 L 10431,6488 10431,6488 9529,6488 Z"/>
 <path fill="rgb(227,26,28)" stroke="none" d="M 7724,6488 L 8626,6488 8626,5736 7724,5736 7724,6488 Z"/>
 <path fill="rgb(227,26,28)" stroke="none" d="M 5920,6488 L 6822,6488 6822,5890 5920,5890 5920,6488 Z"/>
 <path fill="rgb(227,26,28)" stroke="none" d="M 4115,6488 L 5017,6488 5017,6044 4115,6044 4115,6488 Z"/>
 <path fill="rgb(227,26,28)" stroke="none" d="M 2310,6488 L 3212,6488 3212,6488 2310,6488 Z"/>
 <path fill="rgb(251,154,153)" stroke="none" d="M 13139,6488 L 14041,6488 14041,6488 13139,6488 Z"/>
 <path fill="rgb(251,154,153)" stroke="none" d="M 11334,6488 L 12236,6488 12236,6488 11334,6488 Z"/>
 <path fill="rgb(251,154,153)" stroke="none" d="M 9529,6488 L 10431,6488 10431,6488 9529,6488 Z"/>
 <path fill="rgb(251,154,153)" stroke="none" d="M 7724,5736 L 8626,5736 8626,4743 7724,4743 7724,5736 Z"/>
 <path fill="rgb(251,154,153)" stroke="none" d="M 5920,5890 L 6822,5890 6822,5095 5920,5095 5920,5890 Z"/>
 <path fill="rgb(251,154,153)" stroke="none" d="M 4115,6044 L 5017,6044 5017,5512 4115,5512 4115,6044 Z"/>
 <path fill="rgb(251,154,153)" stroke="none" d="M 2310,6488 L 3212,6488 3212,6488 2310,6488 Z"/>
 <path fill="rgb(51,160,44)" stroke="none" d="M 13139,6488 L 14041,6488 14041,6224 13139,6224 13139,6488 Z"/>
 <path fill="rgb(51,160,44)" stroke="none" d="M 11334,6488 L 12236,6488 12236,6294 11334,6294 11334,6488 Z"/>
 <path fill="rgb(51,160,44)" stroke="none" d="M 9529,6488 L 10431,6488 10431,6329 9529,6329 9529,6488 Z"/>
 <path fill="rgb(51,160,44)" stroke="none" d="M 2310,6488 L 3212,6488 3212,6452 2310,6452 2310,6488 Z"/>
 <path fill="rgb(178,223,138)" stroke="none" d="M 13139,6224 L 14041,6224 14041,5960 13139,5960 13139,6224 Z"/>
 <path fill="rgb(178,223,138)" stroke="none" d="M 11334,6294 L 12236,6294 12236,6101 11334,6101 11334,6294 Z"/>
 <path fill="rgb(178,223,138)" stroke="none" d="M 9529,6329 L 10431,6329 10431,6171 9529,6171 9529,6329 Z"/>
 <path fill="rgb(178,223,138)" stroke="none" d="M 2310,6452 L 3212,6452 3212,6417 2310,6417 2310,6452 Z"/>
 <path fill="rgb(31,120,180)" stroke="none" d="M 13139,5960 L 14041,5960 14041,4560 13139,4560 13139,5960 Z"/>
 <path fill="rgb(31,120,180)" stroke="none" d="M 11334,6101 L 12236,6101 12236,4722 11334,4722 11334,6101 Z"/>
 <path fill="rgb(31,120,180)" stroke="none" d="M 9529,6171 L 10431,6171 10431,4823 9529,4823 9529,6171 Z"/>
 <path fill="rgb(31,120,180)" stroke="none" d="M 7724,4743 L 8626,4743 8626,3350 7724,3350 7724,4743 Z"/>
 <path fill="rgb(31,120,180)" stroke="none" d="M 5920,5095 L 6822,5095 6822,3737 5920,3737 5920,5095 Z"/>
 <path fill="rgb(31,120,180)" stroke="none" d="M 4115,5512 L 5017,5512 5017,4181 4115,4181 4115,5512 Z"/>
 <path fill="rgb(31,120,180)" stroke="none" d="M 2310,6417 L 3212,6417 3212,5721 2310,5721 2310,6417 Z"/>
 <path fill="rgb(131,202,255)" stroke="none" d="M 13139,4560 L 14041,4560 14041,2979 13139,2979 13139,4560 Z"/>
 <path fill="rgb(131,202,255)" stroke="none" d="M 11334,4722 L 12236,4722 12236,3164 11334,3164 11334,4722 Z"/>
 <path fill="rgb(131,202,255)" stroke="none" d="M 9529,4823 L 10431,4823 10431,3295 9529,3295 9529,4823 Z"/>
 <path fill="rgb(131,202,255)" stroke="none" d="M 7724,3350 L 8626,3350 8626,1539 7724,1539 7724,3350 Z"/>
 <path fill="rgb(131,202,255)" stroke="none" d="M 5920,3737 L 6822,3737 6822,1961 5920,1961 5920,3737 Z"/>
 <path fill="rgb(131,202,255)" stroke="none" d="M 4115,4181 L 5017,4181 5017,2431 4115,2431 4115,4181 Z"/>
 <path fill="rgb(131,202,255)" stroke="none" d="M 2310,5721 L 3212,5721 3212,4299 2310,4299 2310,5721 Z"/>
 <text class="TextShape" transform="rotate(-44.9 1647 8161)"><tspan class="TextParagraph" font-family="Liberation Sans, sans-serif" font-size="353px" font-weight="400"><tspan class="TextPosition" x="1647" y="8161"><tspan fill="rgb(0,0,0)" stroke="none">CoAP (c/n)</tspan></tspan></tspan></text>
 <text class="TextShape" transform="rotate(-44.9 3601 8011)"><tspan class="TextParagraph" font-family="Liberation Sans, sans-serif" font-size="353px" font-weight="400"><tspan class="TextPosition" x="3601" y="8011"><tspan fill="rgb(0,0,0)" stroke="none">MQTT (0)</tspan></tspan></tspan></text>
 <text class="TextShape" transform="rotate(-44.9 5406 8011)"><tspan class="TextParagraph" font-family="Liberation Sans, sans-serif" font-size="353px" font-weight="400"><tspan class="TextPosition" x="5406" y="8011"><tspan fill="rgb(0,0,0)" stroke="none">MQTT (1)</tspan></tspan></tspan></text>
 <text class="TextShape" transform="rotate(-44.9 7211 8011)"><tspan class="TextParagraph" font-family="Liberation Sans, sans-serif" font-size="353px" font-weight="400"><tspan class="TextPosition" x="7211" y="8011"><tspan fill="rgb(0,0,0)" stroke="none">MQTT (2)</tspan></tspan></tspan></text>
 <text class="TextShape" transform="rotate(-44.9 8604 8423)"><tspan class="TextParagraph" font-family="Liberation Sans, sans-serif" font-size="353px" font-weight="400"><tspan class="TextPosition" x="8604" y="8423"><tspan fill="rgb(0,0,0)" stroke="none">MQTT-SN (0)</tspan></tspan></tspan></text>
 <text class="TextShape" transform="rotate(-44.9 10409 8423)"><tspan class="TextParagraph" font-family="Liberation Sans, sans-serif" font-size="353px" font-weight="400"><tspan class="TextPosition" x="10409" y="8423"><tspan fill="rgb(0,0,0)" stroke="none">MQTT-SN (1)</tspan></tspan></tspan></text>
 <text class="TextShape" transform="rotate(-44.9 12213 8423)"><tspan class="TextParagraph" font-family="Liberation Sans, sans-serif" font-size="353px" font-weight="400"><tspan class="TextPosition" x="12213" y="8423"><tspan fill="rgb(0,0,0)" stroke="none">MQTT-SN (2)</tspan></tspan></tspan></text>
 <text class="TextShape"><tspan class="TextParagraph" font-family="Liberation Sans, sans-serif" font-size="353px" font-weight="400"><tspan class="TextPosition" x="1424" y="6609"><tspan fill="rgb(0,0,0)" stroke="none">0</tspan></tspan></tspan></text>
 <text class="TextShape"><tspan class="TextParagraph" font-family="Liberation Sans, sans-serif" font-size="353px" font-weight="400"><tspan class="TextPosition" x="1053" y="6059"><tspan fill="rgb(0,0,0)" stroke="none">500</tspan></tspan></tspan></text>
 <text class="TextShape"><tspan class="TextParagraph" font-family="Liberation Sans, sans-serif" font-size="353px" font-weight="400"><tspan class="TextPosition" x="868" y="5510"><tspan fill="rgb(0,0,0)" stroke="none">1000</tspan></tspan></tspan></text>
 <text class="TextShape"><tspan class="TextParagraph" font-family="Liberation Sans, sans-serif" font-size="353px" font-weight="400"><tspan class="TextPosition" x="868" y="4961"><tspan fill="rgb(0,0,0)" stroke="none">1500</tspan></tspan></tspan></text>
 <text class="TextShape"><tspan class="TextParagraph" font-family="Liberation Sans, sans-serif" font-size="353px" font-weight="400"><tspan class="TextPosition" x="868" y="4412"><tspan fill="rgb(0,0,0)" stroke="none">2000</tspan></tspan></tspan></text>
 <text class="TextShape"><tspan class="TextParagraph" font-family="Liberation Sans, sans-serif" font-size="353px" font-weight="400"><tspan class="TextPosition" x="868" y="3863"><tspan fill="rgb(0,0,0)" stroke="none">2500</tspan></tspan></tspan></text>
 <text class="TextShape"><tspan class="TextParagraph" font-family="Liberation Sans, sans-serif" font-size="353px" font-weight="400"><tspan class="TextPosition" x="868" y="3313"><tspan fill="rgb(0,0,0)" stroke="none">3000</tspan></tspan></tspan></text>
 <text class="TextShape"><tspan class="TextParagraph" font-family="Liberation Sans, sans-serif" font-size="353px" font-weight="400"><tspan class="TextPosition" x="868" y="2764"><tspan fill="rgb(0,0,0)" stroke="none">3500</tspan></tspan></tspan></text>
 <text class="TextShape"><tspan class="TextParagraph" font-family="Liberation Sans, sans-serif" font-size="353px" font-weight="400"><tspan class="TextPosition" x="868" y="2215"><tspan fill="rgb(0,0,0)" stroke="none">4000</tspan></tspan></tspan></text>
 <text class="TextShape"><tspan class="TextParagraph" font-family="Liberation Sans, sans-serif" font-size="353px" font-weight="400"><tspan class="TextPosition" x="868" y="1666"><tspan fill="rgb(0,0,0)" stroke="none">4500</tspan></tspan></tspan></text>
 <text class="TextShape"><tspan class="TextParagraph" font-family="Liberation Sans, sans-serif" font-size="353px" font-weight="400"><tspan class="TextPosition" x="868" y="1117"><tspan fill="rgb(0,0,0)" stroke="none">5000</tspan></tspan></tspan></text>
 <text class="TextShape"><tspan class="TextParagraph" font-family="Liberation Sans, sans-serif" font-size="353px" font-weight="400"><tspan class="TextPosition" x="2390" y="4120"><tspan fill="rgb(0,0,0)" stroke="none">1993</tspan></tspan></tspan></text>
 <text class="TextShape"><tspan class="TextParagraph" font-family="Liberation Sans, sans-serif" font-size="353px" font-weight="400"><tspan class="TextPosition" x="4195" y="2252"><tspan fill="rgb(0,0,0)" stroke="none">3694</tspan></tspan></tspan></text>
 <text class="TextShape"><tspan class="TextParagraph" font-family="Liberation Sans, sans-serif" font-size="353px" font-weight="400"><tspan class="TextPosition" x="6000" y="1782"><tspan fill="rgb(0,0,0)" stroke="none">4122</tspan></tspan></tspan></text>
 <text class="TextShape"><tspan class="TextParagraph" font-family="Liberation Sans, sans-serif" font-size="353px" font-weight="400"><tspan class="TextPosition" x="7805" y="1360"><tspan fill="rgb(0,0,0)" stroke="none">4506</tspan></tspan></tspan></text>
 <text class="TextShape"><tspan class="TextParagraph" font-family="Liberation Sans, sans-serif" font-size="353px" font-weight="400"><tspan class="TextPosition" x="9610" y="3116"><tspan fill="rgb(0,0,0)" stroke="none">2907</tspan></tspan></tspan></text>
 <text class="TextShape"><tspan class="TextParagraph" font-family="Liberation Sans, sans-serif" font-size="353px" font-weight="400"><tspan class="TextPosition" x="11415" y="2985"><tspan fill="rgb(0,0,0)" stroke="none">3027</tspan></tspan></tspan></text>
 <text class="TextShape"><tspan class="TextParagraph" font-family="Liberation Sans, sans-serif" font-size="353px" font-weight="400"><tspan class="TextPosition" x="13220" y="2800"><tspan fill="rgb(0,0,0)" stroke="none">3195</tspan></tspan></tspan></text>
 <path fill="rgb(227,26,28)" stroke="none" d="M 13154,455 L 13048,455 13048,244 13259,244 13259,455 13154,455 Z"/>
 <path fill="rgb(251,154,153)" stroke="none" d="M 10570,455 L 10464,455 10464,244 10675,244 10675,455 10570,455 Z"/>
 <path fill="rgb(51,160,44)" stroke="none" d="M 8594,455 L 8488,455 8488,244 8699,244 8699,455 8594,455 Z"/>
 <path fill="rgb(178,223,138)" stroke="none" d="M 5983,455 L 5878,455 5878,244 6089,244 6089,455 5983,455 Z"/>
 <path fill="rgb(31,120,180)" stroke="none" d="M 3452,455 L 3347,455 3347,244 3558,244 3558,455 3452,455 Z"/>
 <path fill="rgb(131,202,255)" stroke="none" d="M 286,455 L 181,455 181,244 392,244 392,455 286,455 Z"/>
 <text class="TextShape"><tspan class="TextParagraph" font-family="Liberation Sans, sans-serif" font-size="353px" font-weight="400"><tspan class="TextPosition" x="492" y="469"><tspan fill="rgb(0,0,0)" stroke="none">Protocol received</tspan></tspan></tspan></text>
 <text class="TextShape"><tspan class="TextParagraph" font-family="Liberation Sans, sans-serif" font-size="353px" font-weight="400"><tspan class="TextPosition" x="3658" y="469"><tspan fill="rgb(0,0,0)" stroke="none">Protocol sent</tspan></tspan></tspan></text>
 <text class="TextShape"><tspan class="TextParagraph" font-family="Liberation Sans, sans-serif" font-size="353px" font-weight="400"><tspan class="TextPosition" x="6189" y="469"><tspan fill="rgb(0,0,0)" stroke="none">UDP received</tspan></tspan></tspan></text>
 <text class="TextShape"><tspan class="TextParagraph" font-family="Liberation Sans, sans-serif" font-size="353px" font-weight="400"><tspan class="TextPosition" x="8799" y="469"><tspan fill="rgb(0,0,0)" stroke="none">UDP sent</tspan></tspan></tspan></text>
 <text class="TextShape"><tspan class="TextParagraph" font-family="Liberation Sans, sans-serif" font-size="353px" font-weight="400"><tspan class="TextPosition" x="10775" y="469"><tspan fill="rgb(0,0,0)" stroke="none">TCP received</tspan></tspan></tspan></text>
 <text class="TextShape"><tspan class="TextParagraph" font-family="Liberation Sans, sans-serif" font-size="353px" font-weight="400"><tspan class="TextPosition" x="13359" y="469"><tspan fill="rgb(0,0,0)" stroke="none">TCP sent</tspan></tspan></tspan></text>
 <text class="TextShape" transform="rotate(-90 528 5030)"><tspan class="TextParagraph" font-family="Liberation Sans, sans-serif" font-size="353px" font-weight="400"><tspan class="TextPosition" x="528" y="5030"><tspan fill="rgb(0,0,0)" stroke="none">Number of bytes</tspan></tspan></tspan></text>
</svg>