<?xml version="1.0" encoding="UTF-8"?>
<!DOCTYPE svg PUBLIC "-//W3C//DTD SVG 1.1//EN" "http://www.w3.org/Graphics/SVG/1.1/DTD/svg11.dtd">
<svg width="100mm" height="80mm" viewBox="0 0 10000 8000" version="1.1" xmlns="http://www.w3.org/2000/svg" xmlns:xlink="http://www.w3.org/1999/xlink" stroke-width="28.222" stroke-linejoin="round" xml:space="preserve">
 <path fill="rgb(255,255,255)" stroke="none" d="M 5000,8000 L 0,8000 0,0 10000,0 10000,8000 5000,8000 Z"/>
 <path fill="none" stroke="rgb(179,179,179)" stroke-linejoin="round" d="M 9495,5691 L 1956,5691"/>
 <path fill="none" stroke="rgb(179,179,179)" stroke-linejoin="round" d="M 9495,5113 L 1956,5113"/>
 <path fill="none" stroke="rgb(179,179,179)" stroke-linejoin="round" d="M 9495,4536 L 1956,4536"/>
 <path fill="none" stroke="rgb(179,179,179)" stroke-linejoin="round" d="M 9495,3960 L 1956,3960"/>
 <path fill="none" stroke="rgb(179,179,179)" stroke-linejoin="round" d="M 9495,3383 L 1956,3383"/>
 <path fill="none" stroke="rgb(179,179,179)" stroke-linejoin="round" d="M 9495,2805 L 1956,2805"/>
 <path fill="none" stroke="rgb(179,179,179)" stroke-linejoin="round" d="M 9495,2228 L 1956,2228"/>
 <path fill="none" stroke="rgb(179,179,179)" stroke-linejoin="round" d="M 9495,1651 L 1956,1651"/>
 <path fill="none" stroke="rgb(179,179,179)" stroke-linejoin="round" d="M 9495,1074 L 1956,1074"/>
 <path fill="none" stroke="rgb(179,179,179)" stroke-linejoin="round" d="M 9495,497 L 1956,497"/>
 <path fill="none" stroke="rgb(179,179,179)" stroke-linejoin="round" d="M 1956,5841 L 1956,5691"/>
 <path fill="none" stroke="rgb(179,179,179)" stroke-linejoin="round" d="M 1956,5841 L 1956,5691"/>
 <path fill="none" stroke="rgb(179,179,179)" stroke-linejoin="round" d="M 3033,5841 L 3033,5691"/>
 <path fill="none" stroke="rgb(179,179,179)" stroke-linejoin="round" d="M 3033,5841 L 3033,5691"/>
 <path fill="none" stroke="rgb(179,179,179)" stroke-linejoin="round" d="M 4110,5841 L 4110,5691"/>
 <path fill="none" stroke="rgb(179,179,179)" stroke-linejoin="round" d="M 4110,5841 L 4110,5691"/>
 <path fill="none" stroke="rgb(179,179,179)" stroke-linejoin="round" d="M 5186,5841 L 5186,5691"/>
 <path fill="none" stroke="rgb(179,179,179)" stroke-linejoin="round" d="M 5186,5841 L 5186,5691"/>
 <path fill="none" stroke="rgb(179,179,179)" stroke-linejoin="round" d="M 6263,5841 L 6263,5691"/>
 <path fill="none" stroke="rgb(179,179,179)" stroke-linejoin="round" d="M 6263,5841 L 6263,5691"/>
 <path fill="none" stroke="rgb(179,179,179)" stroke-linejoin="round" d="M 7340,5841 L 7340,5691"/>
 <path fill="none" stroke="rgb(179,179,179)" stroke-linejoin="round" d="M 7340,5841 L 7340,5691"/>
 <path fill="none" stroke="rgb(179,179,179)" stroke-linejoin="round" d="M 8417,5841 L 8417,5691"/>
 <path fill="none" stroke="rgb(179,179,179)" stroke-linejoin="round" d="M 8417,5841 L 8417,5691"/>
 <path fill="none" stroke="rgb(179,179,179)" stroke-linejoin="round" d="M 9495,5841 L 9495,5691"/>
 <path fill="none" stroke="rgb(179,179,179)" stroke-linejoin="round" d="M 9495,5841 L 9495,5691"/>
 <path fill="none" stroke="rgb(179,179,179)" stroke-linejoin="round" d="M 1956,5691 L 9495,5691"/>
 <path fill="none" stroke="rgb(179,179,179)" stroke-linejoin="round" d="M 1806,5691 L 1956,5691"/>
 <path fill="none" stroke="rgb(179,179,179)" stroke-linejoin="round" d="M 1806,5691 L 1956,5691"/>
 <path fill="none" stroke="rgb(179,179,179)" stroke-linejoin="round" d="M 1806,5113 L 1956,5113"/>
 <path fill="none" stroke="rgb(179,179,179)" stroke-linejoin="round" d="M 1806,5113 L 1956,5113"/>
 <path fill="none" stroke="rgb(179,179,179)" stroke-linejoin="round" d="M 1806,4536 L 1956,4536"/>
 <path fill="none" stroke="rgb(179,179,179)" stroke-linejoin="round" d="M 1806,4536 L 1956,4536"/>
 <path fill="none" stroke="rgb(179,179,179)" stroke-linejoin="round" d="M 1806,3960 L 1956,3960"/>
 <path fill="none" stroke="rgb(179,179,179)" stroke-linejoin="round" d="M 1806,3960 L 1956,3960"/>
 <path fill="none" stroke="rgb(179,179,179)" stroke-linejoin="round" d="M 1806,3383 L 1956,3383"/>
 <path fill="none" stroke="rgb(179,179,179)" stroke-linejoin="round" d="M 1806,3383 L 1956,3383"/>
 <path fill="none" stroke="rgb(179,179,179)" stroke-linejoin="round" d="M 1806,2805 L 1956,2805"/>
 <path fill="none" stroke="rgb(179,179,179)" stroke-linejoin="round" d="M 1806,2805 L 1956,2805"/>
 <path fill="none" stroke="rgb(179,179,179)" stroke-linejoin="round" d="M 1806,2228 L 1956,2228"/>
 <path fill="none" stroke="rgb(179,179,179)" stroke-linejoin="round" d="M 1806,2228 L 1956,2228"/>
 <path fill="none" stroke="rgb(179,179,179)" stroke-linejoin="round" d="M 1806,1651 L 1956,1651"/>
 <path fill="none" stroke="rgb(179,179,179)" stroke-linejoin="round" d="M 1806,1651 L 1956,1651"/>
 <path fill="none" stroke="rgb(179,179,179)" stroke-linejoin="round" d="M 1806,1074 L 1956,1074"/>
 <path fill="none" stroke="rgb(179,179,179)" stroke-linejoin="round" d="M 1806,1074 L 1956,1074"/>
 <path fill="none" stroke="rgb(179,179,179)" stroke-linejoin="round" d="M 1806,497 L 1956,497"/>
 <path fill="none" stroke="rgb(179,179,179)" stroke-linejoin="round" d="M 1806,497 L 1956,497"/>
 <path fill="none" stroke="rgb(179,179,179)" stroke-linejoin="round" d="M 1956,5691 L 1956,497"/>
 <path fill="rgb(31,120,180)" stroke="none" d="M 8687,5691 L 9225,5691 9225,2236 8687,2236 8687,5691 Z"/>
 <path fill="rgb(31,120,180)" stroke="none" d="M 7610,5691 L 8148,5691 8148,2831 7610,2831 7610,5691 Z"/>
 <path fill="rgb(31,120,180)" stroke="none" d="M 6532,5691 L 7071,5691 7071,3150 6532,3150 6532,5691 Z"/>
 <path fill="rgb(31,120,180)" stroke="none" d="M 5455,5691 L 5994,5691 5994,887 5455,887 5455,5691 Z"/>
 <path fill="rgb(31,120,180)" stroke="none" d="M 4379,5691 L 4918,5691 4918,1607 4379,1607 4379,5691 Z"/>
 <path fill="rgb(31,120,180)" stroke="none" d="M 3302,5691 L 3841,5691 3841,2446 3302,2446 3302,5691 Z"/>
 <path fill="rgb(31,120,180)" stroke="none" d="M 2225,5691 L 2763,5691 2763,4291 2225,4291 2225,5691 Z"/>
 <text class="TextShape" transform="rotate(-44.9 1380 7364)"><tspan class="TextParagraph" font-family="Liberation Sans, sans-serif" font-size="353px" font-weight="400"><tspan class="TextPosition" x="1380" y="7364"><tspan fill="rgb(0,0,0)" stroke="none">CoAP (c/n)</tspan></tspan></tspan></text>
 <text class="TextShape" transform="rotate(-44.9 2606 7214)"><tspan class="TextParagraph" font-family="Liberation Sans, sans-serif" font-size="353px" font-weight="400"><tspan class="TextPosition" x="2606" y="7214"><tspan fill="rgb(0,0,0)" stroke="none">MQTT (0)</tspan></tspan></tspan></text>
 <text class="TextShape" transform="rotate(-44.9 3683 7214)"><tspan class="TextParagraph" font-family="Liberation Sans, sans-serif" font-size="353px" font-weight="400"><tspan class="TextPosition" x="3683" y="7214"><tspan fill="rgb(0,0,0)" stroke="none">MQTT (1)</tspan></tspan></tspan></text>
 <text class="TextShape" transform="rotate(-44.9 4761 7214)"><tspan class="TextParagraph" font-family="Liberation Sans, sans-serif" font-size="353px" font-weight="400"><tspan class="TextPosition" x="4761" y="7214"><tspan fill="rgb(0,0,0)" stroke="none">MQTT (2)</tspan></tspan></tspan></text>
 <text class="TextShape" transform="rotate(-44.9 5426 7626)"><tspan class="TextParagraph" font-family="Liberation Sans, sans-serif" font-size="353px" font-weight="400"><tspan class="TextPosition" x="5426" y="7626"><tspan fill="rgb(0,0,0)" stroke="none">MQTT-SN (0)</tspan></tspan></tspan></text>
 <text class="TextShape" transform="rotate(-44.9 6503 7626)"><tspan class="TextParagraph" font-family="Liberation Sans, sans-serif" font-size="353px" font-weight="400"><tspan class="TextPosition" x="6503" y="7626"><tspan fill="rgb(0,0,0)" stroke="none">MQTT-SN (1)</tspan></tspan></tspan></text>
 <text class="TextShape" transform="rotate(-44.9 7579 7626)"><tspan class="TextParagraph" font-family="Liberation Sans, sans-serif" font-size="353px" font-weight="400"><tspan class="TextPosition" x="7579" y="7626"><tspan fill="rgb(0,0,0)" stroke="none">MQTT-SN (2)</tspan></tspan></tspan></text>
 <text class="TextShape"><tspan class="TextParagraph" font-family="Liberation Sans, sans-serif" font-size="353px" font-weight="400"><tspan class="TextPosition" x="1521" y="5812"><tspan fill="rgb(0,0,0)" stroke="none">0</tspan></tspan></tspan></text>
 <text class="TextShape"><tspan class="TextParagraph" font-family="Liberation Sans, sans-serif" font-size="353px" font-weight="400"><tspan class="TextPosition" x="965" y="5234"><tspan fill="rgb(0,0,0)" stroke="none">1000</tspan></tspan></tspan></text>
 <text class="TextShape"><tspan class="TextParagraph" font-family="Liberation Sans, sans-serif" font-size="353px" font-weight="400"><tspan class="TextPosition" x="965" y="4657"><tspan fill="rgb(0,0,0)" stroke="none">2000</tspan></tspan></tspan></text>
 <text class="TextShape"><tspan class="TextParagraph" font-family="Liberation Sans, sans-serif" font-size="353px" font-weight="400"><tspan class="TextPosition" x="965" y="4080"><tspan fill="rgb(0,0,0)" stroke="none">3000</tspan></tspan></tspan></text>
 <text class="TextShape"><tspan class="TextParagraph" font-family="Liberation Sans, sans-serif" font-size="353px" font-weight="400"><tspan class="TextPosition" x="965" y="3503"><tspan fill="rgb(0,0,0)" stroke="none">4000</tspan></tspan></tspan></text>
 <text class="TextShape"><tspan class="TextParagraph" font-family="Liberation Sans, sans-serif" font-size="353px" font-weight="400"><tspan class="TextPosition" x="965" y="2925"><tspan fill="rgb(0,0,0)" stroke="none">5000</tspan></tspan></tspan></text>
 <text class="TextShape"><tspan class="TextParagraph" font-family="Liberation Sans, sans-serif" font-size="353px" font-weight="400"><tspan class="TextPosition" x="965" y="2348"><tspan fill="rgb(0,0,0)" stroke="none">6000</tspan></tspan></tspan></text>
 <text class="TextShape"><tspan class="TextParagraph" font-family="Liberation Sans, sans-serif" font-size="353px" font-weight="400"><tspan class="TextPosition" x="965" y="1771"><tspan fill="rgb(0,0,0)" stroke="none">7000</tspan></tspan></tspan></text>
 <text class="TextShape"><tspan class="TextParagraph" font-family="Liberation Sans, sans-serif" font-size="353px" font-weight="400"><tspan class="TextPosition" x="965" y="1194"><tspan fill="rgb(0,0,0)" stroke="none">8000</tspan></tspan></tspan></text>
 <text class="TextShape"><tspan class="TextParagraph" font-family="Liberation Sans, sans-serif" font-size="353px" font-weight="400"><tspan class="TextPosition" x="965" y="617"><tspan fill="rgb(0,0,0)" stroke="none">9000</tspan></tspan></tspan></text>
 <text class="TextShape"><tspan class="TextParagraph" font-family="Liberation Sans, sans-serif" font-size="353px" font-weight="400"><tspan class="TextPosition" x="2123" y="4113"><tspan fill="rgb(0,0,0)" stroke="none">2425</tspan></tspan></tspan></text>
 <text class="TextShape"><tspan class="TextParagraph" font-family="Liberation Sans, sans-serif" font-size="353px" font-weight="400"><tspan class="TextPosition" x="3200" y="2268"><tspan fill="rgb(0,0,0)" stroke="none">5622</tspan></tspan></tspan></text>
 <text class="TextShape"><tspan class="TextParagraph" font-family="Liberation Sans, sans-serif" font-size="353px" font-weight="400"><tspan class="TextPosition" x="4277" y="1429"><tspan fill="rgb(0,0,0)" stroke="none">7076</tspan></tspan></tspan></text>
 <text class="TextShape"><tspan class="TextParagraph" font-family="Liberation Sans, sans-serif" font-size="353px" font-weight="400"><tspan class="TextPosition" x="5355" y="709"><tspan fill="rgb(0,0,0)" stroke="none">8324</tspan></tspan></tspan></text>
 <text class="TextShape"><tspan class="TextParagraph" font-family="Liberation Sans, sans-serif" font-size="353px" font-weight="400"><tspan class="TextPosition" x="6432" y="2972"><tspan fill="rgb(0,0,0)" stroke="none">4403</tspan></tspan></tspan></text>
 <text class="TextShape"><tspan class="TextParagraph" font-family="Liberation Sans, sans-serif" font-size="353px" font-weight="400"><tspan class="TextPosition" x="7509" y="2653"><tspan fill="rgb(0,0,0)" stroke="none">4955</tspan></tspan></tspan></text>
 <text class="TextShape"><tspan class="TextParagraph" font-family="Liberation Sans, sans-serif" font-size="353px" font-weight="400"><tspan class="TextPosition" x="8586" y="2058"><tspan fill="rgb(0,0,0)" stroke="none">5987</tspan></tspan></tspan></text>
 <text class="TextShape" transform="rotate(-90 528 4362)"><tspan class="TextParagraph" font-family="Liberation Sans, sans-serif" font-size="353px" font-weight="400"><tspan class="TextPosition" x="528" y="4362"><tspan fill="rgb(0,0,0)" stroke="none">Number of bytes</tspan></tspan></tspan></text>
</svg>